%TF.GenerationSoftware,KiCad,Pcbnew,7.0.1*%
%TF.CreationDate,2023-11-30T13:28:04+01:00*%
%TF.ProjectId,current100A_Artiq,63757272-656e-4743-9130-30415f417274,rev?*%
%TF.SameCoordinates,Original*%
%TF.FileFunction,Soldermask,Top*%
%TF.FilePolarity,Negative*%
%FSLAX46Y46*%
G04 Gerber Fmt 4.6, Leading zero omitted, Abs format (unit mm)*
G04 Created by KiCad (PCBNEW 7.0.1) date 2023-11-30 13:28:04*
%MOMM*%
%LPD*%
G01*
G04 APERTURE LIST*
G04 Aperture macros list*
%AMRoundRect*
0 Rectangle with rounded corners*
0 $1 Rounding radius*
0 $2 $3 $4 $5 $6 $7 $8 $9 X,Y pos of 4 corners*
0 Add a 4 corners polygon primitive as box body*
4,1,4,$2,$3,$4,$5,$6,$7,$8,$9,$2,$3,0*
0 Add four circle primitives for the rounded corners*
1,1,$1+$1,$2,$3*
1,1,$1+$1,$4,$5*
1,1,$1+$1,$6,$7*
1,1,$1+$1,$8,$9*
0 Add four rect primitives between the rounded corners*
20,1,$1+$1,$2,$3,$4,$5,0*
20,1,$1+$1,$4,$5,$6,$7,0*
20,1,$1+$1,$6,$7,$8,$9,0*
20,1,$1+$1,$8,$9,$2,$3,0*%
%AMFreePoly0*
4,1,15,1.827885,0.766502,1.846291,0.743898,1.848963,0.714870,1.548963,-0.735130,1.531571,-0.763772,1.500000,-0.775000,-1.500000,-0.775000,-1.531571,-0.763772,-1.548963,-0.735130,-1.848963,0.714870,-1.846291,0.743898,-1.827885,0.766502,-1.800000,0.775000,1.800000,0.775000,1.827885,0.766502,1.827885,0.766502,$1*%
%AMFreePoly1*
4,1,15,1.531571,0.763772,1.548963,0.735130,1.848963,-0.714870,1.846291,-0.743898,1.827885,-0.766502,1.800000,-0.775000,-1.800000,-0.775000,-1.827885,-0.766502,-1.846291,-0.743898,-1.848963,-0.714870,-1.548963,0.735130,-1.531571,0.763772,-1.500000,0.775000,1.500000,0.775000,1.531571,0.763772,1.531571,0.763772,$1*%
%AMFreePoly2*
4,1,37,1.430355,1.220355,1.445000,1.185000,1.445000,0.765000,1.430355,0.729645,1.395000,0.715000,0.905000,0.715000,0.905000,0.585000,1.395000,0.585000,1.430355,0.570355,1.445000,0.535000,1.445000,0.115000,1.430355,0.079645,1.395000,0.065000,0.905000,0.065000,0.905000,-0.065000,1.395000,-0.065000,1.430355,-0.079645,1.445000,-0.115000,1.445000,-0.535000,1.430355,-0.570355,
1.395000,-0.585000,0.905000,-0.585000,0.905000,-0.715000,1.395000,-0.715000,1.430355,-0.729645,1.445000,-0.765000,1.445000,-1.185000,1.430355,-1.220355,1.395000,-1.235000,-0.855000,-1.235000,-0.890355,-1.220355,-0.905000,-1.185000,-0.905000,1.185000,-0.890355,1.220355,-0.855000,1.235000,1.395000,1.235000,1.430355,1.220355,1.430355,1.220355,$1*%
G04 Aperture macros list end*
%ADD10O,2.600000X1.700000*%
%ADD11O,7.100000X3.600000*%
%ADD12RoundRect,0.250000X-0.275000X0.200000X-0.275000X-0.200000X0.275000X-0.200000X0.275000X0.200000X0*%
%ADD13RoundRect,0.250000X0.200000X0.275000X-0.200000X0.275000X-0.200000X-0.275000X0.200000X-0.275000X0*%
%ADD14RoundRect,0.275000X0.250000X-0.225000X0.250000X0.225000X-0.250000X0.225000X-0.250000X-0.225000X0*%
%ADD15RoundRect,0.250000X0.275000X-0.200000X0.275000X0.200000X-0.275000X0.200000X-0.275000X-0.200000X0*%
%ADD16RoundRect,0.050000X0.300000X-0.155000X0.300000X0.155000X-0.300000X0.155000X-0.300000X-0.155000X0*%
%ADD17C,0.500000*%
%ADD18RoundRect,0.050000X-0.115000X-0.412500X0.115000X-0.412500X0.115000X0.412500X-0.115000X0.412500X0*%
%ADD19RoundRect,0.050000X-0.750000X-0.875000X0.750000X-0.875000X0.750000X0.875000X-0.750000X0.875000X0*%
%ADD20RoundRect,0.275000X0.225000X0.250000X-0.225000X0.250000X-0.225000X-0.250000X0.225000X-0.250000X0*%
%ADD21RoundRect,0.275000X-0.225000X-0.250000X0.225000X-0.250000X0.225000X0.250000X-0.225000X0.250000X0*%
%ADD22RoundRect,0.300000X-0.325000X-0.650000X0.325000X-0.650000X0.325000X0.650000X-0.325000X0.650000X0*%
%ADD23RoundRect,0.300000X-0.450000X0.262500X-0.450000X-0.262500X0.450000X-0.262500X0.450000X0.262500X0*%
%ADD24RoundRect,0.050000X1.500000X0.600000X-1.500000X0.600000X-1.500000X-0.600000X1.500000X-0.600000X0*%
%ADD25RoundRect,0.050000X0.762000X0.762000X-0.762000X0.762000X-0.762000X-0.762000X0.762000X-0.762000X0*%
%ADD26C,1.624000*%
%ADD27RoundRect,0.050000X1.080000X0.320000X-1.080000X0.320000X-1.080000X-0.320000X1.080000X-0.320000X0*%
%ADD28RoundRect,0.300000X0.475000X-0.250000X0.475000X0.250000X-0.475000X0.250000X-0.475000X-0.250000X0*%
%ADD29RoundRect,0.300000X-0.650000X0.325000X-0.650000X-0.325000X0.650000X-0.325000X0.650000X0.325000X0*%
%ADD30RoundRect,0.050000X0.750000X0.750000X-0.750000X0.750000X-0.750000X-0.750000X0.750000X-0.750000X0*%
%ADD31RoundRect,0.050000X-0.750000X-0.750000X0.750000X-0.750000X0.750000X0.750000X-0.750000X0.750000X0*%
%ADD32RoundRect,0.050000X-0.400000X0.400000X-0.400000X-0.400000X0.400000X-0.400000X0.400000X0.400000X0*%
%ADD33RoundRect,0.300000X0.850000X0.350000X-0.850000X0.350000X-0.850000X-0.350000X0.850000X-0.350000X0*%
%ADD34RoundRect,0.299997X2.950003X2.650003X-2.950003X2.650003X-2.950003X-2.650003X2.950003X-2.650003X0*%
%ADD35RoundRect,0.300000X0.600000X0.600000X-0.600000X0.600000X-0.600000X-0.600000X0.600000X-0.600000X0*%
%ADD36C,1.800000*%
%ADD37RoundRect,0.250000X-0.200000X-0.275000X0.200000X-0.275000X0.200000X0.275000X-0.200000X0.275000X0*%
%ADD38C,2.350000*%
%ADD39RoundRect,0.050000X0.762000X-0.762000X0.762000X0.762000X-0.762000X0.762000X-0.762000X-0.762000X0*%
%ADD40RoundRect,0.050000X-1.206500X-1.714500X1.206500X-1.714500X1.206500X1.714500X-1.206500X1.714500X0*%
%ADD41RoundRect,0.275000X-0.250000X0.225000X-0.250000X-0.225000X0.250000X-0.225000X0.250000X0.225000X0*%
%ADD42RoundRect,0.050000X-0.400000X-0.400000X0.400000X-0.400000X0.400000X0.400000X-0.400000X0.400000X0*%
%ADD43RoundRect,0.050000X-0.400000X-0.600000X0.400000X-0.600000X0.400000X0.600000X-0.400000X0.600000X0*%
%ADD44RoundRect,0.268750X-0.218750X-0.256250X0.218750X-0.256250X0.218750X0.256250X-0.218750X0.256250X0*%
%ADD45RoundRect,0.050000X-0.350000X-0.600000X0.350000X-0.600000X0.350000X0.600000X-0.350000X0.600000X0*%
%ADD46RoundRect,0.050000X-0.500000X-0.400000X0.500000X-0.400000X0.500000X0.400000X-0.500000X0.400000X0*%
%ADD47RoundRect,0.050000X-0.500000X-0.600000X0.500000X-0.600000X0.500000X0.600000X-0.500000X0.600000X0*%
%ADD48RoundRect,0.050000X-0.500000X-1.400000X0.500000X-1.400000X0.500000X1.400000X-0.500000X1.400000X0*%
%ADD49RoundRect,0.050000X-0.650000X-0.950000X0.650000X-0.950000X0.650000X0.950000X-0.650000X0.950000X0*%
%ADD50RoundRect,0.268750X-0.256250X0.218750X-0.256250X-0.218750X0.256250X-0.218750X0.256250X0.218750X0*%
%ADD51RoundRect,0.200000X0.512500X0.150000X-0.512500X0.150000X-0.512500X-0.150000X0.512500X-0.150000X0*%
%ADD52RoundRect,0.300000X-0.312500X-0.625000X0.312500X-0.625000X0.312500X0.625000X-0.312500X0.625000X0*%
%ADD53C,2.100000*%
%ADD54FreePoly0,0.000000*%
%ADD55FreePoly1,0.000000*%
%ADD56RoundRect,0.050000X-0.225000X-0.350000X0.225000X-0.350000X0.225000X0.350000X-0.225000X0.350000X0*%
%ADD57C,1.500000*%
%ADD58C,5.700000*%
%ADD59RoundRect,0.300000X0.450000X-0.262500X0.450000X0.262500X-0.450000X0.262500X-0.450000X-0.262500X0*%
%ADD60RoundRect,0.300000X-0.475000X0.250000X-0.475000X-0.250000X0.475000X-0.250000X0.475000X0.250000X0*%
%ADD61RoundRect,0.200000X-0.150000X0.825000X-0.150000X-0.825000X0.150000X-0.825000X0.150000X0.825000X0*%
%ADD62RoundRect,0.050000X0.150000X0.400000X-0.150000X0.400000X-0.150000X-0.400000X0.150000X-0.400000X0*%
%ADD63RoundRect,0.050000X-0.400000X0.600000X-0.400000X-0.600000X0.400000X-0.600000X0.400000X0.600000X0*%
%ADD64RoundRect,0.050000X0.400000X-0.600000X0.400000X0.600000X-0.400000X0.600000X-0.400000X-0.600000X0*%
%ADD65RoundRect,0.125000X-0.650000X-0.075000X0.650000X-0.075000X0.650000X0.075000X-0.650000X0.075000X0*%
%ADD66RoundRect,0.150000X-0.637500X-0.100000X0.637500X-0.100000X0.637500X0.100000X-0.637500X0.100000X0*%
%ADD67RoundRect,0.300000X0.250000X0.475000X-0.250000X0.475000X-0.250000X-0.475000X0.250000X-0.475000X0*%
%ADD68RoundRect,0.268750X0.218750X0.256250X-0.218750X0.256250X-0.218750X-0.256250X0.218750X-0.256250X0*%
%ADD69RoundRect,0.300000X-1.100000X0.325000X-1.100000X-0.325000X1.100000X-0.325000X1.100000X0.325000X0*%
%ADD70RoundRect,0.200000X0.825000X0.150000X-0.825000X0.150000X-0.825000X-0.150000X0.825000X-0.150000X0*%
%ADD71RoundRect,0.050000X0.750000X-0.750000X0.750000X0.750000X-0.750000X0.750000X-0.750000X-0.750000X0*%
%ADD72RoundRect,0.162500X0.112500X-0.187500X0.112500X0.187500X-0.112500X0.187500X-0.112500X-0.187500X0*%
%ADD73RoundRect,0.050000X-1.500000X-0.600000X1.500000X-0.600000X1.500000X0.600000X-1.500000X0.600000X0*%
%ADD74RoundRect,0.287500X0.237500X-0.300000X0.237500X0.300000X-0.237500X0.300000X-0.237500X-0.300000X0*%
%ADD75RoundRect,0.050000X-0.500000X0.350000X-0.500000X-0.350000X0.500000X-0.350000X0.500000X0.350000X0*%
%ADD76RoundRect,0.050000X-0.300000X0.350000X-0.300000X-0.350000X0.300000X-0.350000X0.300000X0.350000X0*%
%ADD77RoundRect,0.112500X0.375000X0.062500X-0.375000X0.062500X-0.375000X-0.062500X0.375000X-0.062500X0*%
%ADD78RoundRect,0.112500X0.062500X0.375000X-0.062500X0.375000X-0.062500X-0.375000X0.062500X-0.375000X0*%
%ADD79RoundRect,0.050000X2.050000X2.050000X-2.050000X2.050000X-2.050000X-2.050000X2.050000X-2.050000X0*%
%ADD80RoundRect,0.050000X1.206500X1.714500X-1.206500X1.714500X-1.206500X-1.714500X1.206500X-1.714500X0*%
%ADD81C,4.800000*%
%ADD82RoundRect,0.050000X-0.600000X1.500000X-0.600000X-1.500000X0.600000X-1.500000X0.600000X1.500000X0*%
%ADD83RoundRect,0.050000X-0.325000X-0.200000X0.325000X-0.200000X0.325000X0.200000X-0.325000X0.200000X0*%
%ADD84RoundRect,0.300000X-0.250000X-0.475000X0.250000X-0.475000X0.250000X0.475000X-0.250000X0.475000X0*%
%ADD85RoundRect,0.300000X0.325000X0.650000X-0.325000X0.650000X-0.325000X-0.650000X0.325000X-0.650000X0*%
%ADD86RoundRect,0.300000X1.100000X-0.325000X1.100000X0.325000X-1.100000X0.325000X-1.100000X-0.325000X0*%
%ADD87RoundRect,0.300000X0.625000X-0.312500X0.625000X0.312500X-0.625000X0.312500X-0.625000X-0.312500X0*%
%ADD88RoundRect,0.050000X-0.200000X0.325000X-0.200000X-0.325000X0.200000X-0.325000X0.200000X0.325000X0*%
%ADD89RoundRect,0.300000X0.650000X-0.325000X0.650000X0.325000X-0.650000X0.325000X-0.650000X-0.325000X0*%
%ADD90RoundRect,0.200000X-0.150000X0.587500X-0.150000X-0.587500X0.150000X-0.587500X0.150000X0.587500X0*%
%ADD91RoundRect,0.300000X-0.600000X-0.600000X0.600000X-0.600000X0.600000X0.600000X-0.600000X0.600000X0*%
%ADD92RoundRect,0.300000X-0.325000X-1.100000X0.325000X-1.100000X0.325000X1.100000X-0.325000X1.100000X0*%
%ADD93RoundRect,0.268750X0.256250X-0.218750X0.256250X0.218750X-0.256250X0.218750X-0.256250X-0.218750X0*%
%ADD94RoundRect,0.150000X0.100000X-0.712500X0.100000X0.712500X-0.100000X0.712500X-0.100000X-0.712500X0*%
%ADD95RoundRect,0.300000X-0.625000X0.312500X-0.625000X-0.312500X0.625000X-0.312500X0.625000X0.312500X0*%
%ADD96RoundRect,0.150000X0.712500X0.100000X-0.712500X0.100000X-0.712500X-0.100000X0.712500X-0.100000X0*%
%ADD97RoundRect,0.050000X0.600000X0.400000X-0.600000X0.400000X-0.600000X-0.400000X0.600000X-0.400000X0*%
%ADD98RoundRect,0.300000X1.000000X-1.400000X1.000000X1.400000X-1.000000X1.400000X-1.000000X-1.400000X0*%
%ADD99O,2.600000X1.600000*%
%ADD100RoundRect,0.300000X-0.550000X1.500000X-0.550000X-1.500000X0.550000X-1.500000X0.550000X1.500000X0*%
%ADD101RoundRect,0.300000X0.325000X1.100000X-0.325000X1.100000X-0.325000X-1.100000X0.325000X-1.100000X0*%
%ADD102RoundRect,0.300000X0.262500X0.450000X-0.262500X0.450000X-0.262500X-0.450000X0.262500X-0.450000X0*%
%ADD103RoundRect,0.200000X0.150000X-0.512500X0.150000X0.512500X-0.150000X0.512500X-0.150000X-0.512500X0*%
%ADD104RoundRect,0.137500X0.087500X-0.337500X0.087500X0.337500X-0.087500X0.337500X-0.087500X-0.337500X0*%
%ADD105RoundRect,0.131250X0.081250X-0.343750X0.081250X0.343750X-0.081250X0.343750X-0.081250X-0.343750X0*%
%ADD106RoundRect,0.131250X0.343750X-0.081250X0.343750X0.081250X-0.343750X0.081250X-0.343750X-0.081250X0*%
%ADD107RoundRect,0.137500X0.337500X-0.087500X0.337500X0.087500X-0.337500X0.087500X-0.337500X-0.087500X0*%
%ADD108RoundRect,0.050000X1.350000X-1.350000X1.350000X1.350000X-1.350000X1.350000X-1.350000X-1.350000X0*%
%ADD109RoundRect,0.299999X1.550001X-0.790001X1.550001X0.790001X-1.550001X0.790001X-1.550001X-0.790001X0*%
%ADD110O,3.700000X2.180000*%
%ADD111RoundRect,0.200000X-0.825000X-0.150000X0.825000X-0.150000X0.825000X0.150000X-0.825000X0.150000X0*%
%ADD112RoundRect,0.287500X-0.237500X0.300000X-0.237500X-0.300000X0.237500X-0.300000X0.237500X0.300000X0*%
%ADD113RoundRect,0.050000X-0.750000X0.750000X-0.750000X-0.750000X0.750000X-0.750000X0.750000X0.750000X0*%
%ADD114RoundRect,0.050000X-2.850000X0.800000X-2.850000X-0.800000X2.850000X-0.800000X2.850000X0.800000X0*%
%ADD115RoundRect,0.050000X0.210000X-0.495000X0.210000X0.495000X-0.210000X0.495000X-0.210000X-0.495000X0*%
%ADD116RoundRect,0.050000X0.210000X-0.500000X0.210000X0.500000X-0.210000X0.500000X-0.210000X-0.500000X0*%
%ADD117FreePoly2,90.000000*%
%ADD118C,3.300000*%
%ADD119RoundRect,0.050000X0.765000X-0.765000X0.765000X0.765000X-0.765000X0.765000X-0.765000X-0.765000X0*%
%ADD120C,1.630000*%
G04 APERTURE END LIST*
D10*
%TO.C,J9*%
X12700000Y-34798000D03*
D11*
X7620000Y-39878000D03*
D10*
X12700000Y-37338000D03*
D11*
X7620000Y-29718000D03*
%TD*%
D10*
%TO.C,J11*%
X12827000Y-70866000D03*
D11*
X7747000Y-75946000D03*
D10*
X12827000Y-73406000D03*
D11*
X7747000Y-65786000D03*
%TD*%
D10*
%TO.C,J8*%
X12827000Y-52832000D03*
D11*
X7747000Y-57912000D03*
D10*
X12827000Y-55372000D03*
D11*
X7747000Y-47752000D03*
%TD*%
D10*
%TO.C,J10*%
X12827000Y-16764000D03*
D11*
X7747000Y-21844000D03*
D10*
X12827000Y-19304000D03*
D11*
X7747000Y-11684000D03*
%TD*%
D12*
%TO.C,R27*%
X146304000Y-14796000D03*
X146304000Y-16446000D03*
%TD*%
D13*
%TO.C,R41*%
X76644000Y-37592000D03*
X74994000Y-37592000D03*
%TD*%
D14*
%TO.C,C80*%
X139700000Y-16396000D03*
X139700000Y-14846000D03*
%TD*%
D15*
%TO.C,R29*%
X38862000Y-68262000D03*
X38862000Y-66612000D03*
%TD*%
D16*
%TO.C,U6*%
X110233000Y-77511000D03*
X110233000Y-78161000D03*
X110233000Y-78811000D03*
X110233000Y-79461000D03*
X113033000Y-79461000D03*
X113033000Y-78811000D03*
X113033000Y-78161000D03*
X113033000Y-77511000D03*
D17*
X111133000Y-78486000D03*
D18*
X111308000Y-77198000D03*
X111308000Y-79774000D03*
D17*
X111633000Y-77861000D03*
D19*
X111633000Y-78486000D03*
D17*
X111633000Y-79111000D03*
D18*
X111958000Y-77198000D03*
X111958000Y-79774000D03*
D17*
X112133000Y-78486000D03*
%TD*%
D20*
%TO.C,C134*%
X86500000Y-31877000D03*
X84950000Y-31877000D03*
%TD*%
D13*
%TO.C,R42*%
X81089000Y-32766000D03*
X79439000Y-32766000D03*
%TD*%
D14*
%TO.C,C104*%
X24765000Y-69736000D03*
X24765000Y-68186000D03*
%TD*%
D21*
%TO.C,C41*%
X21831000Y-92837000D03*
X23381000Y-92837000D03*
%TD*%
D12*
%TO.C,R21*%
X146304000Y-32576000D03*
X146304000Y-34226000D03*
%TD*%
D22*
%TO.C,C51*%
X28751000Y-81534000D03*
X31701000Y-81534000D03*
%TD*%
D23*
%TO.C,R48*%
X71374000Y-62333500D03*
X71374000Y-64158500D03*
%TD*%
D22*
%TO.C,C1*%
X7542000Y-6731000D03*
X10492000Y-6731000D03*
%TD*%
D14*
%TO.C,C123*%
X80010000Y-47257000D03*
X80010000Y-45707000D03*
%TD*%
D24*
%TO.C,L1*%
X149292000Y-68052000D03*
X149292000Y-65552000D03*
X141792000Y-65552000D03*
X141792000Y-68052000D03*
%TD*%
D25*
%TO.C,U33*%
X113665000Y-22225000D03*
D26*
X111125000Y-22225000D03*
X108585000Y-22225000D03*
X106045000Y-22225000D03*
%TD*%
D27*
%TO.C,U30*%
X113744000Y-48133000D03*
X113744000Y-46863000D03*
X113744000Y-45593000D03*
X105204000Y-45593000D03*
X105204000Y-46863000D03*
X105204000Y-48133000D03*
%TD*%
D28*
%TO.C,C18*%
X107569000Y-87437000D03*
X107569000Y-85537000D03*
%TD*%
D29*
%TO.C,C29*%
X132715000Y-78154000D03*
X132715000Y-81104000D03*
%TD*%
D30*
%TO.C,PP2*%
X78740000Y-40132000D03*
%TD*%
D31*
%TO.C,PP5*%
X89916000Y-49657000D03*
%TD*%
D20*
%TO.C,C65*%
X54413500Y-82031000D03*
X52863500Y-82031000D03*
%TD*%
D30*
%TO.C,PP1*%
X78740000Y-43180000D03*
%TD*%
D32*
%TO.C,JP2*%
X136313000Y-78105000D03*
X135213000Y-78105000D03*
%TD*%
D21*
%TO.C,C115*%
X64503000Y-37719000D03*
X66053000Y-37719000D03*
%TD*%
D20*
%TO.C,C21*%
X120282000Y-82804000D03*
X118732000Y-82804000D03*
%TD*%
D33*
%TO.C,U4*%
X102703000Y-86862000D03*
D34*
X96403000Y-84582000D03*
D33*
X102703000Y-82302000D03*
%TD*%
D35*
%TO.C,J4*%
X45466000Y-90932000D03*
D36*
X42926000Y-90932000D03*
X45466000Y-88392000D03*
X42926000Y-88392000D03*
X45466000Y-85852000D03*
X42926000Y-85852000D03*
X45466000Y-83312000D03*
X42926000Y-83312000D03*
X45466000Y-80772000D03*
X42926000Y-80772000D03*
%TD*%
D24*
%TO.C,L15*%
X124908000Y-18649000D03*
X124908000Y-16149000D03*
X117408000Y-16149000D03*
X117408000Y-18649000D03*
%TD*%
D37*
%TO.C,R7*%
X11367000Y-87630000D03*
X13017000Y-87630000D03*
%TD*%
D22*
%TO.C,C132*%
X71042000Y-35433000D03*
X73992000Y-35433000D03*
%TD*%
D29*
%TO.C,C28*%
X114046000Y-92759000D03*
X114046000Y-95709000D03*
%TD*%
D15*
%TO.C,R32*%
X52197000Y-18859000D03*
X52197000Y-17209000D03*
%TD*%
D38*
%TO.C,J2*%
X5080000Y-87122000D03*
X2540000Y-89662000D03*
X7620000Y-89662000D03*
X2540000Y-84582000D03*
X7620000Y-84582000D03*
%TD*%
D15*
%TO.C,R16*%
X141605000Y-47434000D03*
X141605000Y-45784000D03*
%TD*%
D39*
%TO.C,U35*%
X126365000Y-40259000D03*
D26*
X126365000Y-37719000D03*
X126365000Y-35179000D03*
X126365000Y-32639000D03*
%TD*%
D40*
%TO.C,L6*%
X113665000Y-87630000D03*
X119507000Y-87630000D03*
%TD*%
D14*
%TO.C,C44*%
X37592000Y-96025000D03*
X37592000Y-94475000D03*
%TD*%
D41*
%TO.C,C38*%
X14732000Y-85966000D03*
X14732000Y-87516000D03*
%TD*%
D22*
%TO.C,C2*%
X7542000Y-93218000D03*
X10492000Y-93218000D03*
%TD*%
D12*
%TO.C,R18*%
X148717000Y-46292000D03*
X148717000Y-47942000D03*
%TD*%
D42*
%TO.C,JP1*%
X107950000Y-89493000D03*
X107950000Y-90593000D03*
%TD*%
D20*
%TO.C,C124*%
X86500000Y-46228000D03*
X84950000Y-46228000D03*
%TD*%
D14*
%TO.C,C78*%
X143637000Y-16396000D03*
X143637000Y-14846000D03*
%TD*%
D43*
%TO.C,U37*%
X34417000Y-23447000D03*
X36957000Y-23447000D03*
X36957000Y-17447000D03*
X34417000Y-17447000D03*
%TD*%
D44*
%TO.C,L12*%
X84937500Y-44577000D03*
X86512500Y-44577000D03*
%TD*%
D37*
%TO.C,R8*%
X11367000Y-85852000D03*
X13017000Y-85852000D03*
%TD*%
D27*
%TO.C,U28*%
X113744000Y-35179000D03*
X113744000Y-33909000D03*
X113744000Y-32639000D03*
X105204000Y-32639000D03*
X105204000Y-33909000D03*
X105204000Y-35179000D03*
%TD*%
D45*
%TO.C,J3*%
X84660000Y-79091000D03*
X83560000Y-79091000D03*
X82460000Y-79091000D03*
X81360000Y-79091000D03*
X80260000Y-79091000D03*
X79160000Y-79091000D03*
X78060000Y-79091000D03*
X76960000Y-79091000D03*
X76010000Y-79091000D03*
D46*
X75060000Y-89591000D03*
D47*
X75060000Y-83391000D03*
D48*
X75060000Y-93741000D03*
D47*
X86210000Y-79091000D03*
D49*
X88560000Y-94191000D03*
%TD*%
D50*
%TO.C,D6*%
X52451000Y-43535500D03*
X52451000Y-45110500D03*
%TD*%
D51*
%TO.C,U16*%
X30982500Y-69784000D03*
X30982500Y-68834000D03*
X30982500Y-67884000D03*
X28707500Y-67884000D03*
X28707500Y-68834000D03*
X28707500Y-69784000D03*
%TD*%
D52*
%TO.C,R1*%
X7554500Y-4318000D03*
X10479500Y-4318000D03*
%TD*%
D12*
%TO.C,R30*%
X37211000Y-66612000D03*
X37211000Y-68262000D03*
%TD*%
D53*
%TO.C,GND1*%
X105029000Y-73025000D03*
X107569000Y-73025000D03*
%TD*%
D54*
%TO.C,L3*%
X133350000Y-87073000D03*
D55*
X133350000Y-84123000D03*
%TD*%
D21*
%TO.C,C47*%
X24457000Y-89027000D03*
X26007000Y-89027000D03*
%TD*%
D14*
%TO.C,C75*%
X148717000Y-35192000D03*
X148717000Y-33642000D03*
%TD*%
D56*
%TO.C,D11*%
X66152000Y-18526000D03*
X67452000Y-18526000D03*
X66802000Y-16526000D03*
%TD*%
D37*
%TO.C,R5*%
X107633000Y-95758000D03*
X109283000Y-95758000D03*
%TD*%
D22*
%TO.C,C105*%
X59485000Y-35560000D03*
X62435000Y-35560000D03*
%TD*%
D14*
%TO.C,C33*%
X93726000Y-74562000D03*
X93726000Y-73012000D03*
%TD*%
D37*
%TO.C,R64*%
X34354000Y-25781000D03*
X36004000Y-25781000D03*
%TD*%
D57*
%TO.C,FID2*%
X159512000Y-2921000D03*
%TD*%
D58*
%TO.C,H6*%
X58400000Y-92400000D03*
%TD*%
D27*
%TO.C,U31*%
X113744000Y-54483000D03*
X113744000Y-53213000D03*
X113744000Y-51943000D03*
X105204000Y-51943000D03*
X105204000Y-53213000D03*
X105204000Y-54483000D03*
%TD*%
D59*
%TO.C,R46*%
X63627000Y-22375500D03*
X63627000Y-20550500D03*
%TD*%
D56*
%TO.C,D9*%
X62977000Y-18526000D03*
X64277000Y-18526000D03*
X63627000Y-16526000D03*
%TD*%
D14*
%TO.C,C121*%
X76073000Y-49416000D03*
X76073000Y-47866000D03*
%TD*%
D60*
%TO.C,C141*%
X128270000Y-16449000D03*
X128270000Y-18349000D03*
%TD*%
D61*
%TO.C,U22*%
X76327000Y-40197000D03*
X75057000Y-40197000D03*
X73787000Y-40197000D03*
X72517000Y-40197000D03*
X71247000Y-40197000D03*
X69977000Y-40197000D03*
X68707000Y-40197000D03*
X68707000Y-45147000D03*
X69977000Y-45147000D03*
X71247000Y-45147000D03*
X72517000Y-45147000D03*
X73787000Y-45147000D03*
X75057000Y-45147000D03*
X76327000Y-45147000D03*
%TD*%
D20*
%TO.C,C129*%
X72530000Y-37592000D03*
X70980000Y-37592000D03*
%TD*%
D37*
%TO.C,R45*%
X89091000Y-36957000D03*
X90741000Y-36957000D03*
%TD*%
D15*
%TO.C,R50*%
X82804000Y-40957000D03*
X82804000Y-39307000D03*
%TD*%
D20*
%TO.C,C40*%
X23721000Y-82296000D03*
X22171000Y-82296000D03*
%TD*%
D37*
%TO.C,R56*%
X17209000Y-34798000D03*
X18859000Y-34798000D03*
%TD*%
D62*
%TO.C,U19*%
X69203000Y-48869000D03*
X68703000Y-48869000D03*
X68203000Y-48869000D03*
X67703000Y-48869000D03*
X67703000Y-51969000D03*
X68203000Y-51969000D03*
X68703000Y-51969000D03*
X69203000Y-51969000D03*
%TD*%
D63*
%TO.C,U38*%
X47498000Y-17297000D03*
X44958000Y-17297000D03*
X44958000Y-23597000D03*
X46228000Y-23597000D03*
X47498000Y-23597000D03*
%TD*%
D64*
%TO.C,U25*%
X17526000Y-50521000D03*
X20066000Y-50521000D03*
X20066000Y-44221000D03*
X18796000Y-44221000D03*
X17526000Y-44221000D03*
%TD*%
D37*
%TO.C,R36*%
X47308000Y-41529000D03*
X48958000Y-41529000D03*
%TD*%
D65*
%TO.C,U8*%
X30743000Y-85499000D03*
X30743000Y-85999000D03*
X30743000Y-86499000D03*
X30743000Y-86999000D03*
X30743000Y-87499000D03*
X30743000Y-87999000D03*
X30743000Y-88499000D03*
X30743000Y-88999000D03*
X35043000Y-88999000D03*
X35043000Y-88499000D03*
X35043000Y-87999000D03*
X35043000Y-87499000D03*
X35043000Y-86999000D03*
X35043000Y-86499000D03*
X35043000Y-85999000D03*
X35043000Y-85499000D03*
%TD*%
D56*
%TO.C,D10*%
X68057000Y-64246000D03*
X69357000Y-64246000D03*
X68707000Y-62246000D03*
%TD*%
D29*
%TO.C,C27*%
X111506000Y-92759000D03*
X111506000Y-95709000D03*
%TD*%
D66*
%TO.C,U11*%
X51411000Y-83820000D03*
X51411000Y-84470000D03*
X51411000Y-85120000D03*
X51411000Y-85770000D03*
X51411000Y-86420000D03*
X51411000Y-87070000D03*
X51411000Y-87720000D03*
X51411000Y-88370000D03*
X57136000Y-88370000D03*
X57136000Y-87720000D03*
X57136000Y-87070000D03*
X57136000Y-86420000D03*
X57136000Y-85770000D03*
X57136000Y-85120000D03*
X57136000Y-84470000D03*
X57136000Y-83820000D03*
%TD*%
D67*
%TO.C,C63*%
X58906500Y-81142000D03*
X57006500Y-81142000D03*
%TD*%
D41*
%TO.C,C71*%
X148717000Y-43167000D03*
X148717000Y-44717000D03*
%TD*%
D68*
%TO.C,L14*%
X73304500Y-33274000D03*
X71729500Y-33274000D03*
%TD*%
D69*
%TO.C,C6*%
X137414000Y-92251000D03*
X137414000Y-95201000D03*
%TD*%
D14*
%TO.C,C11*%
X122174000Y-95136000D03*
X122174000Y-93586000D03*
%TD*%
D70*
%TO.C,U15*%
X48068000Y-70358000D03*
X48068000Y-69088000D03*
X48068000Y-67818000D03*
X48068000Y-66548000D03*
X43118000Y-66548000D03*
X43118000Y-67818000D03*
X43118000Y-69088000D03*
X43118000Y-70358000D03*
%TD*%
D15*
%TO.C,R14*%
X86741000Y-10223000D03*
X86741000Y-8573000D03*
%TD*%
D21*
%TO.C,C39*%
X21831000Y-91186000D03*
X23381000Y-91186000D03*
%TD*%
D71*
%TO.C,VuC1*%
X135763000Y-80645000D03*
%TD*%
D72*
%TO.C,D1*%
X149987000Y-84743000D03*
X149987000Y-82643000D03*
%TD*%
D59*
%TO.C,R52*%
X66802000Y-22375500D03*
X66802000Y-20550500D03*
%TD*%
D73*
%TO.C,L10*%
X60810500Y-70494000D03*
X60810500Y-72994000D03*
X68310500Y-72994000D03*
X68310500Y-70494000D03*
%TD*%
D30*
%TO.C,P5V1*%
X101219000Y-78486000D03*
%TD*%
D21*
%TO.C,C32*%
X115176000Y-81534000D03*
X116726000Y-81534000D03*
%TD*%
D68*
%TO.C,D13*%
X18948500Y-54610000D03*
X17373500Y-54610000D03*
%TD*%
D74*
%TO.C,C48*%
X28026000Y-88111500D03*
X28026000Y-86386500D03*
%TD*%
D21*
%TO.C,C127*%
X84950000Y-42926000D03*
X86500000Y-42926000D03*
%TD*%
D41*
%TO.C,C116*%
X70993000Y-51422000D03*
X70993000Y-52972000D03*
%TD*%
%TO.C,C72*%
X148717000Y-26937000D03*
X148717000Y-25387000D03*
%TD*%
D50*
%TO.C,D3*%
X16510000Y-85953500D03*
X16510000Y-87528500D03*
%TD*%
D15*
%TO.C,R67*%
X49530000Y-18859000D03*
X49530000Y-17209000D03*
%TD*%
D21*
%TO.C,C46*%
X32499000Y-90805000D03*
X34049000Y-90805000D03*
%TD*%
%TO.C,C139*%
X18021000Y-5969000D03*
X19571000Y-5969000D03*
%TD*%
D75*
%TO.C,D5*%
X148832000Y-52467000D03*
D76*
X147132000Y-52467000D03*
X147132000Y-54467000D03*
X149032000Y-54467000D03*
%TD*%
D41*
%TO.C,C98*%
X45212000Y-35928000D03*
X45212000Y-37478000D03*
%TD*%
D71*
%TO.C,P6V1*%
X110363000Y-90043000D03*
%TD*%
D57*
%TO.C,FID1*%
X1016000Y-2921000D03*
%TD*%
D20*
%TO.C,C125*%
X86500000Y-25273000D03*
X84950000Y-25273000D03*
%TD*%
D77*
%TO.C,U13*%
X145804500Y-24975000D03*
X145804500Y-24475000D03*
X145804500Y-23975000D03*
X145804500Y-23475000D03*
X145804500Y-22975000D03*
X145804500Y-22475000D03*
X145804500Y-21975000D03*
X145804500Y-21475000D03*
X145804500Y-20975000D03*
X145804500Y-20475000D03*
X145804500Y-19975000D03*
X145804500Y-19475000D03*
D78*
X145117000Y-18787500D03*
X144617000Y-18787500D03*
X144117000Y-18787500D03*
X143617000Y-18787500D03*
X143117000Y-18787500D03*
X142617000Y-18787500D03*
X142117000Y-18787500D03*
X141617000Y-18787500D03*
X141117000Y-18787500D03*
X140617000Y-18787500D03*
X140117000Y-18787500D03*
X139617000Y-18787500D03*
D77*
X138929500Y-19475000D03*
X138929500Y-19975000D03*
X138929500Y-20475000D03*
X138929500Y-20975000D03*
X138929500Y-21475000D03*
X138929500Y-21975000D03*
X138929500Y-22475000D03*
X138929500Y-22975000D03*
X138929500Y-23475000D03*
X138929500Y-23975000D03*
X138929500Y-24475000D03*
X138929500Y-24975000D03*
D78*
X139617000Y-25662500D03*
X140117000Y-25662500D03*
X140617000Y-25662500D03*
X141117000Y-25662500D03*
X141617000Y-25662500D03*
X142117000Y-25662500D03*
X142617000Y-25662500D03*
X143117000Y-25662500D03*
X143617000Y-25662500D03*
X144117000Y-25662500D03*
X144617000Y-25662500D03*
X145117000Y-25662500D03*
D79*
X142367000Y-22225000D03*
%TD*%
D14*
%TO.C,C153*%
X49530000Y-23635000D03*
X49530000Y-22085000D03*
%TD*%
D28*
%TO.C,C17*%
X113665000Y-65974000D03*
X113665000Y-64074000D03*
%TD*%
D80*
%TO.C,L7*%
X145288000Y-78105000D03*
X139446000Y-78105000D03*
%TD*%
D15*
%TO.C,R22*%
X141859000Y-29654000D03*
X141859000Y-28004000D03*
%TD*%
D13*
%TO.C,R39*%
X52260000Y-35433000D03*
X50610000Y-35433000D03*
%TD*%
D60*
%TO.C,C88*%
X145415000Y-27879000D03*
X145415000Y-29779000D03*
%TD*%
D41*
%TO.C,C118*%
X76073000Y-51422000D03*
X76073000Y-52972000D03*
%TD*%
D14*
%TO.C,C12*%
X126238000Y-87021000D03*
X126238000Y-85471000D03*
%TD*%
D81*
%TO.C,H1*%
X3556000Y-5512000D03*
%TD*%
D12*
%TO.C,R23*%
X141478000Y-14796000D03*
X141478000Y-16446000D03*
%TD*%
D21*
%TO.C,C133*%
X84950000Y-39624000D03*
X86500000Y-39624000D03*
%TD*%
D12*
%TO.C,R24*%
X148717000Y-28512000D03*
X148717000Y-30162000D03*
%TD*%
D69*
%TO.C,C7*%
X141478000Y-84123000D03*
X141478000Y-87073000D03*
%TD*%
D28*
%TO.C,C85*%
X137795000Y-34351000D03*
X137795000Y-32451000D03*
%TD*%
D12*
%TO.C,R9*%
X18161000Y-84392000D03*
X18161000Y-86042000D03*
%TD*%
D21*
%TO.C,C131*%
X84950000Y-30226000D03*
X86500000Y-30226000D03*
%TD*%
D25*
%TO.C,U9*%
X70513800Y-77666000D03*
D26*
X67973800Y-77666000D03*
X65433800Y-77666000D03*
X62893800Y-77666000D03*
%TD*%
D22*
%TO.C,C53*%
X34085000Y-78994000D03*
X37035000Y-78994000D03*
%TD*%
D15*
%TO.C,R15*%
X81661000Y-10223000D03*
X81661000Y-8573000D03*
%TD*%
D21*
%TO.C,C157*%
X22593000Y-58801000D03*
X24143000Y-58801000D03*
%TD*%
D37*
%TO.C,R53*%
X89091000Y-35306000D03*
X90741000Y-35306000D03*
%TD*%
D14*
%TO.C,C97*%
X54102000Y-37478000D03*
X54102000Y-35928000D03*
%TD*%
D82*
%TO.C,L17*%
X133457000Y-26857000D03*
X130957000Y-26857000D03*
X130957000Y-34357000D03*
X133457000Y-34357000D03*
%TD*%
D31*
%TO.C,PP3*%
X79502000Y-26670000D03*
%TD*%
D41*
%TO.C,C36*%
X108077000Y-77584000D03*
X108077000Y-79134000D03*
%TD*%
D83*
%TO.C,U24*%
X97348000Y-57770000D03*
X97348000Y-58420000D03*
X97348000Y-59070000D03*
X99248000Y-59070000D03*
X99248000Y-58420000D03*
X99248000Y-57770000D03*
%TD*%
D60*
%TO.C,C35*%
X148844000Y-77917000D03*
X148844000Y-79817000D03*
%TD*%
D15*
%TO.C,R66*%
X39370000Y-19113000D03*
X39370000Y-17463000D03*
%TD*%
D65*
%TO.C,U18*%
X61350000Y-39525000D03*
X61350000Y-40025000D03*
X61350000Y-40525000D03*
X61350000Y-41025000D03*
X61350000Y-41525000D03*
X61350000Y-42025000D03*
X61350000Y-42525000D03*
X61350000Y-43025000D03*
X65650000Y-43025000D03*
X65650000Y-42525000D03*
X65650000Y-42025000D03*
X65650000Y-41525000D03*
X65650000Y-41025000D03*
X65650000Y-40525000D03*
X65650000Y-40025000D03*
X65650000Y-39525000D03*
%TD*%
D60*
%TO.C,C15*%
X138303000Y-61153000D03*
X138303000Y-63053000D03*
%TD*%
D84*
%TO.C,C146*%
X131257000Y-37719000D03*
X133157000Y-37719000D03*
%TD*%
D85*
%TO.C,C50*%
X31701000Y-78994000D03*
X28751000Y-78994000D03*
%TD*%
D37*
%TO.C,R55*%
X17336000Y-52832000D03*
X18986000Y-52832000D03*
%TD*%
D31*
%TO.C,P12V1*%
X140843000Y-92329000D03*
%TD*%
D64*
%TO.C,U27*%
X17526000Y-14453000D03*
X20066000Y-14453000D03*
X20066000Y-8153000D03*
X18796000Y-8153000D03*
X17526000Y-8153000D03*
%TD*%
D68*
%TO.C,D2*%
X12979500Y-89535000D03*
X11404500Y-89535000D03*
%TD*%
D15*
%TO.C,R40*%
X82931000Y-32194000D03*
X82931000Y-30544000D03*
%TD*%
D37*
%TO.C,R63*%
X28004000Y-55499000D03*
X29654000Y-55499000D03*
%TD*%
D15*
%TO.C,R34*%
X46228000Y-48450000D03*
X46228000Y-46800000D03*
%TD*%
D13*
%TO.C,R4*%
X109283000Y-94107000D03*
X107633000Y-94107000D03*
%TD*%
D86*
%TO.C,C9*%
X124841000Y-95201000D03*
X124841000Y-92251000D03*
%TD*%
D52*
%TO.C,R2*%
X7554500Y-95758000D03*
X10479500Y-95758000D03*
%TD*%
D87*
%TO.C,R28*%
X48387000Y-50103500D03*
X48387000Y-47178500D03*
%TD*%
D50*
%TO.C,L4*%
X151257000Y-92811500D03*
X151257000Y-94386500D03*
%TD*%
D44*
%TO.C,D4*%
X11404500Y-84074000D03*
X12979500Y-84074000D03*
%TD*%
D12*
%TO.C,R20*%
X148717000Y-36767000D03*
X148717000Y-38417000D03*
%TD*%
D62*
%TO.C,U20*%
X74283000Y-48869000D03*
X73783000Y-48869000D03*
X73283000Y-48869000D03*
X72783000Y-48869000D03*
X72783000Y-51969000D03*
X73283000Y-51969000D03*
X73783000Y-51969000D03*
X74283000Y-51969000D03*
%TD*%
D21*
%TO.C,C154*%
X22593000Y-55499000D03*
X24143000Y-55499000D03*
%TD*%
D14*
%TO.C,C68*%
X59734500Y-85092000D03*
X59734500Y-83542000D03*
%TD*%
D68*
%TO.C,L11*%
X62636500Y-50165000D03*
X61061500Y-50165000D03*
%TD*%
%TO.C,L9*%
X34061500Y-96012000D03*
X32486500Y-96012000D03*
%TD*%
D60*
%TO.C,C151*%
X119126000Y-46294000D03*
X119126000Y-48194000D03*
%TD*%
D41*
%TO.C,C82*%
X139573000Y-28054000D03*
X139573000Y-29604000D03*
%TD*%
D14*
%TO.C,C74*%
X83566000Y-8649000D03*
X83566000Y-7099000D03*
%TD*%
D88*
%TO.C,U32*%
X18557000Y-62931000D03*
X17907000Y-62931000D03*
X17257000Y-62931000D03*
X17257000Y-64831000D03*
X18557000Y-64831000D03*
%TD*%
D58*
%TO.C,H8*%
X156503000Y-93997000D03*
%TD*%
D85*
%TO.C,C54*%
X37035000Y-81534000D03*
X34085000Y-81534000D03*
%TD*%
D41*
%TO.C,C126*%
X78359000Y-45707000D03*
X78359000Y-47257000D03*
%TD*%
D15*
%TO.C,R61*%
X116586000Y-54546000D03*
X116586000Y-52896000D03*
%TD*%
D89*
%TO.C,C90*%
X53721000Y-69293000D03*
X53721000Y-66343000D03*
%TD*%
D90*
%TO.C,U5*%
X97597000Y-73230500D03*
X95697000Y-73230500D03*
X96647000Y-75105500D03*
%TD*%
D41*
%TO.C,C81*%
X139573000Y-45834000D03*
X139573000Y-47384000D03*
%TD*%
D60*
%TO.C,C87*%
X145288000Y-45659000D03*
X145288000Y-47559000D03*
%TD*%
D91*
%TO.C,J12*%
X96393000Y-34925000D03*
D36*
X98933000Y-34925000D03*
X96393000Y-37465000D03*
X98933000Y-37465000D03*
X96393000Y-40005000D03*
X98933000Y-40005000D03*
X96393000Y-42545000D03*
X98933000Y-42545000D03*
X96393000Y-45085000D03*
X98933000Y-45085000D03*
X96393000Y-47625000D03*
X98933000Y-47625000D03*
X96393000Y-50165000D03*
X98933000Y-50165000D03*
%TD*%
D12*
%TO.C,R25*%
X148717000Y-22162000D03*
X148717000Y-23812000D03*
%TD*%
D28*
%TO.C,C59*%
X57448500Y-72694000D03*
X57448500Y-70794000D03*
%TD*%
D84*
%TO.C,C144*%
X111826000Y-18669000D03*
X113726000Y-18669000D03*
%TD*%
D14*
%TO.C,C79*%
X139700000Y-34176000D03*
X139700000Y-32626000D03*
%TD*%
D41*
%TO.C,C109*%
X58801000Y-45326000D03*
X58801000Y-46876000D03*
%TD*%
D20*
%TO.C,C67*%
X65418000Y-84836000D03*
X63868000Y-84836000D03*
%TD*%
D60*
%TO.C,C149*%
X119126000Y-38420000D03*
X119126000Y-40320000D03*
%TD*%
D84*
%TO.C,C150*%
X106365000Y-29464000D03*
X108265000Y-29464000D03*
%TD*%
D20*
%TO.C,C60*%
X69863000Y-84836000D03*
X68313000Y-84836000D03*
%TD*%
D21*
%TO.C,C89*%
X142227000Y-50546000D03*
X143777000Y-50546000D03*
%TD*%
D58*
%TO.C,H7*%
X156503000Y-6003000D03*
%TD*%
D92*
%TO.C,C110*%
X61136000Y-47498000D03*
X64086000Y-47498000D03*
%TD*%
D51*
%TO.C,U21*%
X83433500Y-51369000D03*
X83433500Y-50419000D03*
X83433500Y-49469000D03*
X81158500Y-49469000D03*
X81158500Y-51369000D03*
%TD*%
D20*
%TO.C,C128*%
X86500000Y-28575000D03*
X84950000Y-28575000D03*
%TD*%
D81*
%TO.C,H2*%
X3556000Y-94412000D03*
%TD*%
D21*
%TO.C,C64*%
X57308500Y-79110000D03*
X58858500Y-79110000D03*
%TD*%
D59*
%TO.C,R62*%
X17399000Y-70889500D03*
X17399000Y-69064500D03*
%TD*%
D31*
%TO.C,PP7*%
X89916000Y-44577000D03*
%TD*%
D93*
%TO.C,D8*%
X46990000Y-45110500D03*
X46990000Y-43535500D03*
%TD*%
D85*
%TO.C,C114*%
X67515000Y-35560000D03*
X64565000Y-35560000D03*
%TD*%
D29*
%TO.C,C91*%
X51054000Y-66343000D03*
X51054000Y-69293000D03*
%TD*%
D12*
%TO.C,R6*%
X104267000Y-77534000D03*
X104267000Y-79184000D03*
%TD*%
D54*
%TO.C,L2*%
X129286000Y-95201000D03*
D55*
X129286000Y-92251000D03*
%TD*%
D89*
%TO.C,C92*%
X39624000Y-31574000D03*
X39624000Y-28624000D03*
%TD*%
D14*
%TO.C,C30*%
X99568000Y-74562000D03*
X99568000Y-73012000D03*
%TD*%
D20*
%TO.C,C130*%
X86500000Y-41275000D03*
X84950000Y-41275000D03*
%TD*%
D84*
%TO.C,C143*%
X131257000Y-23622000D03*
X133157000Y-23622000D03*
%TD*%
D60*
%TO.C,C25*%
X117094000Y-77409000D03*
X117094000Y-79309000D03*
%TD*%
D94*
%TO.C,U7*%
X20193000Y-88853500D03*
X20843000Y-88853500D03*
X21493000Y-88853500D03*
X22143000Y-88853500D03*
X22143000Y-84628500D03*
X21493000Y-84628500D03*
X20843000Y-84628500D03*
X20193000Y-84628500D03*
%TD*%
D12*
%TO.C,R26*%
X148717000Y-18987000D03*
X148717000Y-20637000D03*
%TD*%
D37*
%TO.C,R49*%
X79439000Y-37592000D03*
X81089000Y-37592000D03*
%TD*%
D14*
%TO.C,C73*%
X88519000Y-8649000D03*
X88519000Y-7099000D03*
%TD*%
D60*
%TO.C,C148*%
X119126000Y-51628000D03*
X119126000Y-53528000D03*
%TD*%
D13*
%TO.C,R43*%
X90741000Y-40767000D03*
X89091000Y-40767000D03*
%TD*%
D14*
%TO.C,C22*%
X105537000Y-83579000D03*
X105537000Y-82029000D03*
%TD*%
D95*
%TO.C,R31*%
X50927000Y-47178500D03*
X50927000Y-50103500D03*
%TD*%
D20*
%TO.C,C42*%
X23721000Y-80645000D03*
X22171000Y-80645000D03*
%TD*%
D96*
%TO.C,U17*%
X51769500Y-39456000D03*
X51769500Y-38806000D03*
X51769500Y-38156000D03*
X51769500Y-37506000D03*
X47544500Y-37506000D03*
X47544500Y-38156000D03*
X47544500Y-38806000D03*
X47544500Y-39456000D03*
%TD*%
D41*
%TO.C,C107*%
X58801000Y-37960000D03*
X58801000Y-39510000D03*
%TD*%
D40*
%TO.C,L8*%
X98933000Y-92964000D03*
X104775000Y-92964000D03*
%TD*%
D21*
%TO.C,C156*%
X22593000Y-57150000D03*
X24143000Y-57150000D03*
%TD*%
D28*
%TO.C,C61*%
X71672500Y-72694000D03*
X71672500Y-70794000D03*
%TD*%
D92*
%TO.C,C45*%
X32561000Y-93345000D03*
X35511000Y-93345000D03*
%TD*%
D12*
%TO.C,R35*%
X55626000Y-44641000D03*
X55626000Y-46291000D03*
%TD*%
D84*
%TO.C,C147*%
X111699000Y-29464000D03*
X113599000Y-29464000D03*
%TD*%
D20*
%TO.C,C49*%
X26007000Y-84074000D03*
X24457000Y-84074000D03*
%TD*%
D21*
%TO.C,C66*%
X52819000Y-90159000D03*
X54369000Y-90159000D03*
%TD*%
D69*
%TO.C,C4*%
X137922000Y-84123000D03*
X137922000Y-87073000D03*
%TD*%
D13*
%TO.C,R37*%
X52006000Y-41529000D03*
X50356000Y-41529000D03*
%TD*%
D97*
%TO.C,U36*%
X29312000Y-53340000D03*
X29312000Y-50800000D03*
X23012000Y-50800000D03*
X23012000Y-52070000D03*
X23012000Y-53340000D03*
%TD*%
D14*
%TO.C,C102*%
X26416000Y-69736000D03*
X26416000Y-68186000D03*
%TD*%
D41*
%TO.C,C83*%
X143383000Y-45834000D03*
X143383000Y-47384000D03*
%TD*%
D20*
%TO.C,C23*%
X109233000Y-92456000D03*
X107683000Y-92456000D03*
%TD*%
D28*
%TO.C,C119*%
X78740000Y-51369000D03*
X78740000Y-49469000D03*
%TD*%
D15*
%TO.C,R33*%
X53213000Y-48450000D03*
X53213000Y-46800000D03*
%TD*%
D12*
%TO.C,R3*%
X149987000Y-86424000D03*
X149987000Y-88074000D03*
%TD*%
D20*
%TO.C,C52*%
X31890000Y-83693000D03*
X30340000Y-83693000D03*
%TD*%
D12*
%TO.C,R17*%
X141478000Y-32576000D03*
X141478000Y-34226000D03*
%TD*%
D69*
%TO.C,C3*%
X133858000Y-92251000D03*
X133858000Y-95201000D03*
%TD*%
D60*
%TO.C,C26*%
X107569000Y-81793000D03*
X107569000Y-83693000D03*
%TD*%
D77*
%TO.C,U12*%
X145804500Y-42755000D03*
X145804500Y-42255000D03*
X145804500Y-41755000D03*
X145804500Y-41255000D03*
X145804500Y-40755000D03*
X145804500Y-40255000D03*
X145804500Y-39755000D03*
X145804500Y-39255000D03*
X145804500Y-38755000D03*
X145804500Y-38255000D03*
X145804500Y-37755000D03*
X145804500Y-37255000D03*
D78*
X145117000Y-36567500D03*
X144617000Y-36567500D03*
X144117000Y-36567500D03*
X143617000Y-36567500D03*
X143117000Y-36567500D03*
X142617000Y-36567500D03*
X142117000Y-36567500D03*
X141617000Y-36567500D03*
X141117000Y-36567500D03*
X140617000Y-36567500D03*
X140117000Y-36567500D03*
X139617000Y-36567500D03*
D77*
X138929500Y-37255000D03*
X138929500Y-37755000D03*
X138929500Y-38255000D03*
X138929500Y-38755000D03*
X138929500Y-39255000D03*
X138929500Y-39755000D03*
X138929500Y-40255000D03*
X138929500Y-40755000D03*
X138929500Y-41255000D03*
X138929500Y-41755000D03*
X138929500Y-42255000D03*
X138929500Y-42755000D03*
D78*
X139617000Y-43442500D03*
X140117000Y-43442500D03*
X140617000Y-43442500D03*
X141117000Y-43442500D03*
X141617000Y-43442500D03*
X142117000Y-43442500D03*
X142617000Y-43442500D03*
X143117000Y-43442500D03*
X143617000Y-43442500D03*
X144117000Y-43442500D03*
X144617000Y-43442500D03*
X145117000Y-43442500D03*
D79*
X142367000Y-40005000D03*
%TD*%
D42*
%TO.C,JP3*%
X82804000Y-27517000D03*
X82804000Y-28617000D03*
%TD*%
D60*
%TO.C,C37*%
X106172000Y-77536000D03*
X106172000Y-79436000D03*
%TD*%
D64*
%TO.C,U26*%
X17526000Y-32360000D03*
X20066000Y-32360000D03*
X20066000Y-26060000D03*
X18796000Y-26060000D03*
X17526000Y-26060000D03*
%TD*%
D14*
%TO.C,C120*%
X70993000Y-49416000D03*
X70993000Y-47866000D03*
%TD*%
D39*
%TO.C,U34*%
X126365000Y-53467000D03*
D26*
X126365000Y-50927000D03*
X126365000Y-48387000D03*
X126365000Y-45847000D03*
%TD*%
D60*
%TO.C,C8*%
X138303000Y-65852000D03*
X138303000Y-67752000D03*
%TD*%
D37*
%TO.C,R65*%
X22543000Y-48768000D03*
X24193000Y-48768000D03*
%TD*%
D98*
%TO.C,D12*%
X90072000Y-24892000D03*
X96872000Y-24892000D03*
%TD*%
D99*
%TO.C,U1*%
X134584000Y-70616000D03*
X134584000Y-68076000D03*
X134584000Y-62996000D03*
X117384000Y-64516000D03*
X117384000Y-67056000D03*
X117384000Y-69596000D03*
%TD*%
D57*
%TO.C,FID3*%
X159512000Y-96774000D03*
%TD*%
D37*
%TO.C,R57*%
X17463000Y-16764000D03*
X19113000Y-16764000D03*
%TD*%
D13*
%TO.C,R13*%
X26057000Y-85725000D03*
X24407000Y-85725000D03*
%TD*%
D35*
%TO.C,J7*%
X39624000Y-49403000D03*
D36*
X37084000Y-49403000D03*
X39624000Y-46863000D03*
X37084000Y-46863000D03*
X39624000Y-44323000D03*
X37084000Y-44323000D03*
X39624000Y-41783000D03*
X37084000Y-41783000D03*
X39624000Y-39243000D03*
X37084000Y-39243000D03*
%TD*%
D14*
%TO.C,C20*%
X116332000Y-94247000D03*
X116332000Y-92697000D03*
%TD*%
D85*
%TO.C,C103*%
X62435000Y-33020000D03*
X59485000Y-33020000D03*
%TD*%
D20*
%TO.C,C106*%
X62624000Y-51943000D03*
X61074000Y-51943000D03*
%TD*%
D31*
%TO.C,PP4*%
X79883000Y-30607000D03*
%TD*%
D21*
%TO.C,C55*%
X33896000Y-83693000D03*
X35446000Y-83693000D03*
%TD*%
D20*
%TO.C,C111*%
X62497000Y-37719000D03*
X60947000Y-37719000D03*
%TD*%
D86*
%TO.C,C99*%
X55626000Y-42750000D03*
X55626000Y-39800000D03*
%TD*%
D31*
%TO.C,PP6*%
X77089000Y-34798000D03*
%TD*%
D51*
%TO.C,U14*%
X144647500Y-54417000D03*
X144647500Y-53467000D03*
X144647500Y-52517000D03*
X142372500Y-52517000D03*
X142372500Y-54417000D03*
%TD*%
D13*
%TO.C,R38*%
X52260000Y-33782000D03*
X50610000Y-33782000D03*
%TD*%
D29*
%TO.C,C122*%
X82169000Y-44245000D03*
X82169000Y-47195000D03*
%TD*%
D13*
%TO.C,R11*%
X19748000Y-94742000D03*
X18098000Y-94742000D03*
%TD*%
D100*
%TO.C,C13*%
X146050000Y-88867000D03*
X146050000Y-94267000D03*
%TD*%
D41*
%TO.C,C31*%
X115189000Y-77457000D03*
X115189000Y-79007000D03*
%TD*%
D20*
%TO.C,C69*%
X54413500Y-79999000D03*
X52863500Y-79999000D03*
%TD*%
D101*
%TO.C,C43*%
X19636000Y-92075000D03*
X16686000Y-92075000D03*
%TD*%
D84*
%TO.C,C142*%
X131257000Y-41656000D03*
X133157000Y-41656000D03*
%TD*%
D28*
%TO.C,C14*%
X138303000Y-72451000D03*
X138303000Y-70551000D03*
%TD*%
D82*
%TO.C,L16*%
X133457000Y-44764000D03*
X130957000Y-44764000D03*
X130957000Y-52264000D03*
X133457000Y-52264000D03*
%TD*%
D68*
%TO.C,D15*%
X19075500Y-18542000D03*
X17500500Y-18542000D03*
%TD*%
D60*
%TO.C,C5*%
X152654000Y-65852000D03*
X152654000Y-67752000D03*
%TD*%
D92*
%TO.C,C56*%
X89076000Y-64897000D03*
X92026000Y-64897000D03*
%TD*%
D28*
%TO.C,C86*%
X137795000Y-16571000D03*
X137795000Y-14671000D03*
%TD*%
D41*
%TO.C,C84*%
X143510000Y-28054000D03*
X143510000Y-29604000D03*
%TD*%
D69*
%TO.C,C93*%
X34417000Y-66724000D03*
X34417000Y-69674000D03*
%TD*%
D14*
%TO.C,C100*%
X55753000Y-37478000D03*
X55753000Y-35928000D03*
%TD*%
D12*
%TO.C,R60*%
X116586000Y-48070000D03*
X116586000Y-49720000D03*
%TD*%
D37*
%TO.C,R44*%
X79439000Y-34417000D03*
X81089000Y-34417000D03*
%TD*%
D14*
%TO.C,C95*%
X40513000Y-68212000D03*
X40513000Y-66662000D03*
%TD*%
D21*
%TO.C,C137*%
X18021000Y-42037000D03*
X19571000Y-42037000D03*
%TD*%
D60*
%TO.C,C152*%
X119126000Y-33086000D03*
X119126000Y-34986000D03*
%TD*%
D68*
%TO.C,D7*%
X50444500Y-43307000D03*
X48869500Y-43307000D03*
%TD*%
D13*
%TO.C,R12*%
X26057000Y-87376000D03*
X24407000Y-87376000D03*
%TD*%
D58*
%TO.C,H4*%
X28400000Y-92400000D03*
%TD*%
D102*
%TO.C,R47*%
X90828500Y-38862000D03*
X89003500Y-38862000D03*
%TD*%
D91*
%TO.C,J5*%
X154679692Y-15877648D03*
D36*
X157219692Y-15877648D03*
X154679692Y-18417648D03*
X157219692Y-18417648D03*
X154679692Y-20957648D03*
X157219692Y-20957648D03*
X154679692Y-23497648D03*
X157219692Y-23497648D03*
X154679692Y-26037648D03*
X157219692Y-26037648D03*
X154679692Y-28577648D03*
X157219692Y-28577648D03*
X154679692Y-31117648D03*
X157219692Y-31117648D03*
X154679692Y-33657648D03*
X157219692Y-33657648D03*
X154679692Y-36197648D03*
X157219692Y-36197648D03*
X154679692Y-38737648D03*
X157219692Y-38737648D03*
X154679692Y-41277648D03*
X157219692Y-41277648D03*
X154679692Y-43817648D03*
X157219692Y-43817648D03*
X154679692Y-46357648D03*
X157219692Y-46357648D03*
X154679692Y-48897648D03*
X157219692Y-48897648D03*
X154679692Y-51437648D03*
X157219692Y-51437648D03*
%TD*%
D103*
%TO.C,U3*%
X122367000Y-86989500D03*
X123317000Y-86989500D03*
X124267000Y-86989500D03*
X124267000Y-84714500D03*
X123317000Y-84714500D03*
X122367000Y-84714500D03*
%TD*%
D14*
%TO.C,C77*%
X143891000Y-34176000D03*
X143891000Y-32626000D03*
%TD*%
D20*
%TO.C,C57*%
X81039000Y-76454000D03*
X79489000Y-76454000D03*
%TD*%
D41*
%TO.C,C19*%
X105537000Y-85585000D03*
X105537000Y-87135000D03*
%TD*%
D44*
%TO.C,L13*%
X84937500Y-26924000D03*
X86512500Y-26924000D03*
%TD*%
D14*
%TO.C,C117*%
X85598000Y-51321000D03*
X85598000Y-49771000D03*
%TD*%
D12*
%TO.C,R51*%
X100330000Y-24829000D03*
X100330000Y-26479000D03*
%TD*%
D14*
%TO.C,C101*%
X45212000Y-41161000D03*
X45212000Y-39611000D03*
%TD*%
D85*
%TO.C,C135*%
X73992000Y-31115000D03*
X71042000Y-31115000D03*
%TD*%
D15*
%TO.C,R58*%
X116586000Y-35242000D03*
X116586000Y-33592000D03*
%TD*%
D104*
%TO.C,U23*%
X83683200Y-37712800D03*
X84333200Y-37712800D03*
D105*
X84983200Y-37712800D03*
D104*
X85633200Y-37712800D03*
D106*
X86633200Y-36712800D03*
D107*
X86633200Y-36062800D03*
X86633200Y-35412800D03*
X86633200Y-34762800D03*
D104*
X85633200Y-33762800D03*
X84983200Y-33762800D03*
X84333200Y-33762800D03*
X83683200Y-33762800D03*
D107*
X82683200Y-34762800D03*
X82683200Y-35412800D03*
X82683200Y-36062800D03*
X82683200Y-36712800D03*
D108*
X84658200Y-35737800D03*
%TD*%
D14*
%TO.C,C76*%
X148717000Y-17412000D03*
X148717000Y-15862000D03*
%TD*%
D109*
%TO.C,J1*%
X154210500Y-86868000D03*
D110*
X154210500Y-81788000D03*
%TD*%
D84*
%TO.C,C62*%
X56879500Y-76443000D03*
X58779500Y-76443000D03*
%TD*%
D86*
%TO.C,C10*%
X128905000Y-87073000D03*
X128905000Y-84123000D03*
%TD*%
D84*
%TO.C,C145*%
X131257000Y-55753000D03*
X133157000Y-55753000D03*
%TD*%
D15*
%TO.C,R10*%
X18161000Y-89090000D03*
X18161000Y-87440000D03*
%TD*%
D20*
%TO.C,C70*%
X54369000Y-91810000D03*
X52819000Y-91810000D03*
%TD*%
%TO.C,C136*%
X99073000Y-61087000D03*
X97523000Y-61087000D03*
%TD*%
D29*
%TO.C,C24*%
X129921000Y-78154000D03*
X129921000Y-81104000D03*
%TD*%
D111*
%TO.C,U10*%
X63819000Y-87122000D03*
X63819000Y-88392000D03*
X63819000Y-89662000D03*
X63819000Y-90932000D03*
X68769000Y-90932000D03*
X68769000Y-89662000D03*
X68769000Y-88392000D03*
X68769000Y-87122000D03*
%TD*%
D37*
%TO.C,R54*%
X89091000Y-33528000D03*
X90741000Y-33528000D03*
%TD*%
D27*
%TO.C,U29*%
X113744000Y-41656000D03*
X113744000Y-40386000D03*
X113744000Y-39116000D03*
X105204000Y-39116000D03*
X105204000Y-40386000D03*
X105204000Y-41656000D03*
%TD*%
D68*
%TO.C,D14*%
X18821500Y-36576000D03*
X17246500Y-36576000D03*
%TD*%
D12*
%TO.C,R19*%
X148717000Y-39942000D03*
X148717000Y-41592000D03*
%TD*%
D103*
%TO.C,U2*%
X118303000Y-95117500D03*
X119253000Y-95117500D03*
X120203000Y-95117500D03*
X120203000Y-92842500D03*
X119253000Y-92842500D03*
X118303000Y-92842500D03*
%TD*%
D112*
%TO.C,C108*%
X58801000Y-41555500D03*
X58801000Y-43280500D03*
%TD*%
D21*
%TO.C,C58*%
X89014000Y-62230000D03*
X90564000Y-62230000D03*
%TD*%
D113*
%TO.C,P2V1*%
X94234000Y-70485000D03*
%TD*%
D28*
%TO.C,C16*%
X113665000Y-70038000D03*
X113665000Y-68138000D03*
%TD*%
D21*
%TO.C,C112*%
X61074000Y-44831000D03*
X62624000Y-44831000D03*
%TD*%
D58*
%TO.C,H3*%
X28400000Y-7600000D03*
%TD*%
D35*
%TO.C,J14*%
X28321000Y-38989000D03*
D36*
X25781000Y-38989000D03*
X28321000Y-36449000D03*
X25781000Y-36449000D03*
X28321000Y-33909000D03*
X25781000Y-33909000D03*
X28321000Y-31369000D03*
X25781000Y-31369000D03*
X28321000Y-28829000D03*
X25781000Y-28829000D03*
X28321000Y-26289000D03*
X25781000Y-26289000D03*
X28321000Y-23749000D03*
X25781000Y-23749000D03*
X28321000Y-21209000D03*
X25781000Y-21209000D03*
%TD*%
D114*
%TO.C,L5*%
X124587000Y-76898000D03*
X124587000Y-81598000D03*
%TD*%
D60*
%TO.C,C34*%
X95631000Y-92903000D03*
X95631000Y-94803000D03*
%TD*%
D12*
%TO.C,R59*%
X116586000Y-41593000D03*
X116586000Y-43243000D03*
%TD*%
D21*
%TO.C,C96*%
X48882000Y-45085000D03*
X50432000Y-45085000D03*
%TD*%
D89*
%TO.C,C94*%
X35814000Y-31574000D03*
X35814000Y-28624000D03*
%TD*%
D115*
%TO.C,Q1*%
X145583000Y-85701000D03*
D116*
X146233000Y-85701000D03*
X146883000Y-85701000D03*
X147533000Y-85701000D03*
D117*
X146558000Y-83746000D03*
%TD*%
D20*
%TO.C,C140*%
X18682000Y-66802000D03*
X17132000Y-66802000D03*
%TD*%
D21*
%TO.C,C138*%
X18021000Y-23876000D03*
X19571000Y-23876000D03*
%TD*%
D67*
%TO.C,C155*%
X24699000Y-46863000D03*
X22799000Y-46863000D03*
%TD*%
D22*
%TO.C,C113*%
X64565000Y-33020000D03*
X67515000Y-33020000D03*
%TD*%
D58*
%TO.C,H5*%
X58400000Y-7600000D03*
%TD*%
D118*
%TO.C,M1*%
X105506920Y-60198000D03*
X29336920Y-58928000D03*
X53466920Y-27178000D03*
X29336920Y-13208000D03*
X104266920Y-11938000D03*
D26*
X12827000Y-67818000D03*
X12750800Y-65278000D03*
X12827000Y-6858000D03*
X12827000Y-4318000D03*
D119*
X100710920Y-14478000D03*
D120*
X100710920Y-11938000D03*
X98170920Y-14478000D03*
X98170920Y-11938000D03*
X95630920Y-14478000D03*
X95630920Y-11938000D03*
X93090920Y-14478000D03*
X93090920Y-11938000D03*
X90550920Y-14478000D03*
X90550920Y-11938000D03*
X88010920Y-14478000D03*
X88010920Y-11938000D03*
X85470920Y-14478000D03*
X85470920Y-11938000D03*
X82930920Y-14478000D03*
X82930920Y-11938000D03*
X80390920Y-14478000D03*
X80390920Y-11938000D03*
X77850920Y-14478000D03*
X77850920Y-11938000D03*
D119*
X91566920Y-60198000D03*
D120*
X91566920Y-57658000D03*
X89026920Y-60198000D03*
X89026920Y-57658000D03*
X86486920Y-60198000D03*
X86486920Y-57658000D03*
X83946920Y-60198000D03*
X83946920Y-57658000D03*
X81406920Y-60198000D03*
X81406920Y-57658000D03*
X78866920Y-60198000D03*
X78866920Y-57658000D03*
X76326920Y-60198000D03*
X76326920Y-57658000D03*
X73786920Y-60198000D03*
X73786920Y-57658000D03*
D119*
X68706920Y-60198000D03*
D120*
X68706920Y-57658000D03*
X66166920Y-60198000D03*
X66166920Y-57658000D03*
X63626920Y-60198000D03*
X63626920Y-57658000D03*
X61086920Y-60198000D03*
X61086920Y-57658000D03*
X58546920Y-60198000D03*
X58546920Y-57658000D03*
X56006920Y-60198000D03*
X56006920Y-57658000D03*
X53466920Y-60198000D03*
X53466920Y-57658000D03*
X50926920Y-60198000D03*
X50926920Y-57658000D03*
X48386920Y-60198000D03*
X48386920Y-57658000D03*
X45846920Y-60198000D03*
X45846920Y-57658000D03*
X43306920Y-60198000D03*
X43306920Y-57658000D03*
X40766920Y-60198000D03*
X40766920Y-57658000D03*
X38226920Y-60198000D03*
X38226920Y-57658000D03*
X35686920Y-60198000D03*
X35686920Y-57658000D03*
X33146920Y-60198000D03*
X33146920Y-57658000D03*
D119*
X73786920Y-14478000D03*
D120*
X73786920Y-11938000D03*
X71246920Y-14478000D03*
X71246920Y-11938000D03*
X68706920Y-14478000D03*
X68706920Y-11938000D03*
X66166920Y-14478000D03*
X66166920Y-11938000D03*
X63626920Y-14478000D03*
X63626920Y-11938000D03*
X61086920Y-14478000D03*
X61086920Y-11938000D03*
X58546920Y-14478000D03*
X58546920Y-11938000D03*
X56006920Y-14478000D03*
X56006920Y-11938000D03*
X53466920Y-14478000D03*
X53466920Y-11938000D03*
X50926920Y-14478000D03*
X50926920Y-11938000D03*
X48386920Y-14478000D03*
X48386920Y-11938000D03*
X45846920Y-14478000D03*
X45846920Y-11938000D03*
X43306920Y-14478000D03*
X43306920Y-11938000D03*
X40766920Y-14478000D03*
X40766920Y-11938000D03*
X38226920Y-14478000D03*
X38226920Y-11938000D03*
X35686920Y-14478000D03*
X35686920Y-11938000D03*
X33146920Y-14478000D03*
X33146920Y-11938000D03*
%TD*%
M02*
