M48
; DRILL file {KiCad 7.0.1} date Thu Nov 30 13:28:09 2023
; FORMAT={-:-/ absolute / inch / decimal}
; #@! TF.CreationDate,2023-11-30T13:28:09+01:00
; #@! TF.GenerationSoftware,Kicad,Pcbnew,7.0.1
; #@! TF.FileFunction,MixedPlating,1,4
FMAT,2
INCH
; #@! TA.AperFunction,Plated,PTH,ComponentDrill
T1C0.0079
; #@! TA.AperFunction,Plated,PTH,ViaDrill
T2C0.0160
; #@! TA.AperFunction,Plated,PTH,ViaDrill
T3C0.0240
; #@! TA.AperFunction,Plated,PTH,ComponentDrill
T4C0.0276
; #@! TA.AperFunction,Plated,PTH,ComponentDrill
T5C0.0300
; #@! TA.AperFunction,Plated,PTH,ComponentDrill
T6C0.0323
; #@! TA.AperFunction,Plated,PTH,ComponentDrill
T7C0.0350
; #@! TA.AperFunction,Plated,PTH,ComponentDrill
T8C0.0394
; #@! TA.AperFunction,Plated,PTH,ComponentDrill
T9C0.0551
; #@! TA.AperFunction,Plated,PTH,ComponentDrill
T10C0.0591
; #@! TA.AperFunction,Plated,PTH,ComponentDrill
T11C0.0669
; #@! TA.AperFunction,Plated,PTH,ComponentDrill
T12C0.0791
; #@! TA.AperFunction,Plated,PTH,ComponentDrill
T13C0.1063
; #@! TA.AperFunction,Plated,PTH,ComponentDrill
T14C0.1260
; #@! TA.AperFunction,NonPlated,NPTH,ComponentDrill
T15C0.1260
%
G90
G05
T1
X3.2917Y-1.3657
X3.2917Y-1.407
X3.2917Y-1.4483
X3.333Y-1.3657
X3.333Y-1.407
X3.333Y-1.4483
X3.3743Y-1.3657
X3.3743Y-1.407
X3.3743Y-1.4483
X4.3753Y-3.09
X4.395Y-3.0654
X4.395Y-3.1146
X4.4147Y-3.09
X5.5341Y-0.8041
X5.5341Y-0.8514
X5.5341Y-0.8986
X5.5341Y-0.9459
X5.5341Y-1.5041
X5.5341Y-1.5514
X5.5341Y-1.5986
X5.5341Y-1.6459
X5.5814Y-0.8041
X5.5814Y-0.8514
X5.5814Y-0.8986
X5.5814Y-0.9459
X5.5814Y-1.5041
X5.5814Y-1.5514
X5.5814Y-1.5986
X5.5814Y-1.6459
X5.6286Y-0.8041
X5.6286Y-0.8514
X5.6286Y-0.8986
X5.6286Y-0.9459
X5.6286Y-1.5041
X5.6286Y-1.5514
X5.6286Y-1.5986
X5.6286Y-1.6459
X5.6759Y-0.8041
X5.6759Y-0.8514
X5.6759Y-0.8986
X5.6759Y-0.9459
X5.6759Y-1.5041
X5.6759Y-1.5514
X5.6759Y-1.5986
X5.6759Y-1.6459
T2
X0.415Y-3.38
X0.62Y-2.435
X0.635Y-2.72
X0.65Y-2.405
X0.68Y-2.585
X0.715Y-3.69
X0.74Y-0.365
X0.74Y-1.07
X0.74Y-1.785
X0.84Y-2.795
X0.89Y-2.355
X0.9Y-1.795
X0.95Y-2.0
X1.01Y-1.845
X1.14Y-3.47
X1.175Y-2.795
X1.18Y-0.82
X1.21Y-0.895
X1.26Y-3.425
X1.32Y-2.13
X1.325Y-3.435
X1.33Y-3.515
X1.355Y-0.52
X1.375Y-2.51
X1.385Y-2.16
X1.415Y-1.055
X1.435Y-3.435
X1.435Y-3.48
X1.455Y-2.42
X1.465Y-3.405
X1.48Y-2.45
X1.51Y-2.48
X1.54Y-3.695
X1.69Y-0.63
X1.82Y-0.975
X1.975Y-3.35
X2.015Y-3.505
X2.055Y-1.43
X2.08Y-3.185
X2.155Y-0.42
X2.19Y-3.36
X2.275Y-1.705
X2.5Y-1.545
X2.53Y-1.705
X2.56Y-2.09
X2.56Y-2.16
X2.6Y-2.9
X2.64Y-1.595
X2.64Y-1.67
X2.67Y-1.635
X2.68Y-2.98
X2.705Y-2.125
X2.705Y-2.19
X2.765Y-3.48
X2.81Y-2.19
X2.81Y-2.415
X2.835Y-1.885
X2.9125Y-2.0975
X2.955Y-2.215
X3.0Y-3.05
X3.015Y-0.83
X3.015Y-1.52
X3.03Y-3.07
X3.035Y-1.885
X3.055Y-2.185
X3.075Y-3.07
X3.095Y-2.435
X3.155Y-1.58
X3.155Y-2.125
X3.16Y-3.16
X3.215Y-0.435
X3.231Y-1.48
X3.245Y-3.07
X3.25Y-2.435
X3.29Y-3.07
X3.33Y-3.07
X3.375Y-1.525
X3.41Y-0.8
X3.415Y-0.435
X3.45Y-1.46
X3.475Y-1.3942
X3.61Y-1.415
X3.61Y-1.455
X3.61Y-1.605
X3.815Y-1.065
X3.845Y-1.425
X3.95Y-1.075
X4.205Y-3.775
X4.46Y-3.16
X4.485Y-3.05
X4.555Y-3.775
X4.63Y-1.325
X4.63Y-2.085
X4.665Y-1.7
X4.665Y-1.955
X4.665Y-2.16
X5.225Y-0.525
X5.255Y-0.555
X5.285Y-0.465
X5.315Y-0.495
X5.345Y-0.285
X5.375Y-0.405
X5.405Y-0.255
X5.425Y-1.485
X5.425Y-1.525
X5.425Y-1.565
X5.425Y-1.605
X5.425Y-1.68
X5.43Y-0.78
X5.43Y-0.83
X5.43Y-0.865
X5.43Y-0.915
X5.43Y-0.97
X5.475Y-0.345
X5.505Y-0.315
X5.54Y-1.865
X5.555Y-0.975
X5.57Y-0.225
X5.57Y-0.695
X5.6Y-1.05
X5.61Y-0.435
X5.625Y-0.695
X5.745Y-0.74
X5.775Y-1.0
X5.78Y-0.855
X5.78Y-0.895
X5.785Y-1.58
X5.81Y-0.375
X5.963Y-0.553
X5.963Y-1.248
X5.968Y-0.883
X5.968Y-1.538
X5.987Y-0.577
X5.987Y-1.272
X5.992Y-0.907
X5.992Y-1.562
T3
X0.41Y-3.31
X0.41Y-3.525
X0.45Y-3.175
X0.46Y-3.72
X0.66Y-3.55
X0.66Y-3.705
X0.71Y-0.195
X0.71Y-0.895
X0.71Y-1.615
X0.77Y-0.195
X0.77Y-0.895
X0.77Y-1.615
X0.785Y-2.63
X0.86Y-3.025
X0.86Y-3.7
X0.92Y-3.7
X0.925Y-2.895
X0.93Y-2.685
X0.93Y-2.745
X0.965Y-3.545
X0.975Y-3.24
X1.085Y-3.11
X1.085Y-3.21
X1.2Y-2.0
X1.25Y-2.84
X1.25Y-3.05
X1.3Y-3.47
X1.34Y-3.05
X1.385Y-3.575
X1.41Y-1.18
X1.445Y-2.73
X1.45Y-3.675
X1.455Y-0.97
X1.505Y-3.11
X1.505Y-3.21
X1.525Y-3.78
X1.56Y-1.18
X1.595Y-2.58
X1.595Y-2.735
X1.65Y-2.55
X1.735Y-1.415
X1.77Y-0.98
X1.78Y-1.122
X1.78Y-1.52
X1.78Y-1.66
X1.805Y-1.715
X1.995Y-0.87
X1.995Y-0.93
X2.055Y-0.78
X2.11Y-1.72
X2.115Y-2.68
X2.175Y-2.61
X2.19Y-1.615
X2.205Y-2.665
X2.205Y-2.835
X2.235Y-1.415
X2.235Y-1.475
X2.245Y-3.25
X2.315Y-1.89
X2.35Y-3.39
X2.355Y-1.495
X2.36Y-2.045
X2.375Y-2.94
X2.39Y-1.3
X2.39Y-1.4
X2.445Y-0.73
X2.455Y-3.58
X2.47Y-1.035
X2.47Y-1.235
X2.47Y-1.87
X2.48Y-2.775
X2.5Y-1.665
X2.54Y-1.235
X2.545Y-0.685
X2.57Y-0.73
X2.625Y-2.55
X2.63Y-1.97
X2.65Y-1.475
X2.66Y-1.235
X2.665Y-0.685
X2.6655Y-2.0
X2.68Y-2.57
X2.6895Y-3.2945
X2.73Y-2.57
X2.78Y-3.58
X2.795Y-1.16
X2.795Y-1.985
X2.8Y-3.34
X2.84Y-2.085
X2.89Y-2.525
X2.905Y-1.48
X2.905Y-1.71
X2.91Y-3.53
X2.91Y-3.695
X2.915Y-1.165
X2.915Y-3.285
X2.9399Y-2.8301
X2.995Y-1.985
X3.04Y-2.085
X3.085Y-1.29
X3.1Y-1.905
X3.13Y-2.97
X3.19Y-2.555
X3.19Y-2.97
X3.195Y-2.075
X3.235Y-1.81
X3.24Y-1.69
X3.26Y-1.645
X3.29Y-0.235
X3.295Y-0.995
X3.345Y-1.865
X3.395Y-3.165
X3.415Y-1.96
X3.445Y-1.535
X3.45Y-1.19
X3.46Y-2.555
X3.465Y-0.98
X3.485Y-0.235
X3.51Y-1.65
X3.54Y-3.71
X3.62Y-2.465
X3.64Y-3.23
X3.64Y-3.28
X3.64Y-3.33
X3.64Y-3.38
X3.64Y-3.43
X3.645Y-0.88
X3.645Y-1.82
X3.68Y-2.52
X3.69Y-1.085
X3.71Y-3.735
X3.725Y-2.57
X3.735Y-0.87
X3.75Y-2.945
X3.765Y-3.605
X3.77Y-2.29
X3.77Y-2.405
X3.775Y-0.82
X3.815Y-2.065
X3.855Y-2.955
X3.945Y-2.405
X3.95Y-3.23
X3.95Y-3.28
X3.95Y-3.33
X3.95Y-3.38
X3.95Y-3.43
X3.965Y-2.875
X4.06Y-3.055
X4.06Y-3.115
X4.07Y-1.285
X4.07Y-1.55
X4.14Y-1.16
X4.14Y-1.43
X4.155Y-3.33
X4.21Y-1.54
X4.21Y-1.685
X4.215Y-1.795
X4.215Y-1.895
X4.215Y-2.145
X4.255Y-1.415
X4.255Y-1.64
X4.255Y-3.155
X4.26Y-2.005
X4.28Y-3.33
X4.29Y-3.22
X4.39Y-3.725
X4.395Y-3.0
X4.395Y-3.18
X4.49Y-3.725
X4.55Y-1.275
X4.55Y-1.54
X4.55Y-1.795
X4.55Y-2.045
X4.595Y-3.165
X4.665Y-3.045
X4.77Y-3.665
X4.915Y-3.68
X4.93Y-3.315
X4.93Y-3.36
X5.075Y-3.36
X5.1Y-0.72
X5.105Y-0.65
X5.115Y-3.15
X5.165Y-0.875
X5.165Y-1.585
X5.225Y-3.15
X5.24Y-1.585
X5.255Y-1.14
X5.27Y-3.7
X5.35Y-3.365
X5.41Y-3.7
X5.43Y-3.385
X5.435Y-1.23
X5.435Y-1.4
X5.44Y-0.53
X5.44Y-0.7
X5.445Y-2.735
X5.45Y-1.105
X5.495Y-1.905
X5.535Y-1.805
X5.57Y-3.385
X5.61Y-0.645
X5.615Y-1.285
X5.615Y-1.345
X5.655Y-0.54
X5.695Y-3.71
X5.7Y-1.99
X5.72Y-1.915
X5.725Y-1.215
X5.75Y-2.105
X5.765Y-1.13
X5.765Y-1.835
X5.81Y-3.71
X5.86Y-3.02
X5.89Y-1.0
X5.89Y-1.06
X5.89Y-1.325
X5.89Y-1.385
X5.89Y-1.7
X5.89Y-1.76
X5.895Y-0.625
X5.895Y-0.685
X5.905Y-2.06
X5.91Y-3.715
X5.915Y-3.14
X5.995Y-3.715
X6.06Y-2.595
X6.06Y-2.665
T4
X3.035Y-1.37
X3.1Y-1.58
X3.1Y-1.7
X3.13Y-1.05
X3.145Y-1.205
X3.54Y-1.755
X3.54Y-1.955
X3.71Y-2.775
X3.985Y-3.09
X4.345Y-3.545
X5.345Y-3.175
X5.545Y-3.635
T5
X2.4761Y-3.0577
X2.5761Y-3.0577
X2.6761Y-3.0577
X2.7761Y-3.0577
X4.175Y-0.875
X4.275Y-0.875
X4.375Y-0.875
X4.475Y-0.875
X4.975Y-1.285
X4.975Y-1.385
X4.975Y-1.485
X4.975Y-1.585
X4.975Y-1.805
X4.975Y-1.905
X4.975Y-2.005
X4.975Y-2.105
T6
X0.502Y-2.57
X0.505Y-0.17
X0.505Y-0.27
X0.505Y-2.67
X1.305Y-0.47
X1.305Y-0.57
X1.305Y-2.27
X1.305Y-2.37
X1.405Y-0.47
X1.405Y-0.57
X1.405Y-2.27
X1.405Y-2.37
X1.505Y-0.47
X1.505Y-0.57
X1.505Y-2.27
X1.505Y-2.37
X1.605Y-0.47
X1.605Y-0.57
X1.605Y-2.27
X1.605Y-2.37
X1.705Y-0.47
X1.705Y-0.57
X1.705Y-2.27
X1.705Y-2.37
X1.805Y-0.47
X1.805Y-0.57
X1.805Y-2.27
X1.805Y-2.37
X1.905Y-0.47
X1.905Y-0.57
X1.905Y-2.27
X1.905Y-2.37
X2.005Y-0.47
X2.005Y-0.57
X2.005Y-2.27
X2.005Y-2.37
X2.105Y-0.47
X2.105Y-0.57
X2.105Y-2.27
X2.105Y-2.37
X2.205Y-0.47
X2.205Y-0.57
X2.205Y-2.27
X2.205Y-2.37
X2.305Y-0.47
X2.305Y-0.57
X2.305Y-2.27
X2.305Y-2.37
X2.405Y-0.47
X2.405Y-0.57
X2.405Y-2.27
X2.405Y-2.37
X2.505Y-0.47
X2.505Y-0.57
X2.505Y-2.27
X2.505Y-2.37
X2.605Y-0.47
X2.605Y-0.57
X2.605Y-2.27
X2.605Y-2.37
X2.705Y-0.47
X2.705Y-0.57
X2.705Y-2.27
X2.705Y-2.37
X2.805Y-0.47
X2.805Y-0.57
X2.905Y-0.47
X2.905Y-0.57
X2.905Y-2.27
X2.905Y-2.37
X3.005Y-2.27
X3.005Y-2.37
X3.065Y-0.47
X3.065Y-0.57
X3.105Y-2.27
X3.105Y-2.37
X3.165Y-0.47
X3.165Y-0.57
X3.205Y-2.27
X3.205Y-2.37
X3.265Y-0.47
X3.265Y-0.57
X3.305Y-2.27
X3.305Y-2.37
X3.365Y-0.47
X3.365Y-0.57
X3.405Y-2.27
X3.405Y-2.37
X3.465Y-0.47
X3.465Y-0.57
X3.505Y-2.27
X3.505Y-2.37
X3.565Y-0.47
X3.565Y-0.57
X3.605Y-2.27
X3.605Y-2.37
X3.665Y-0.47
X3.665Y-0.57
X3.765Y-0.47
X3.765Y-0.57
X3.865Y-0.47
X3.865Y-0.57
X3.965Y-0.47
X3.965Y-0.57
T7
X0.5Y-1.37
X0.5Y-1.47
X0.505Y-0.66
X0.505Y-0.76
X0.505Y-2.08
X0.505Y-2.18
X0.505Y-2.79
X0.505Y-2.89
T8
X1.015Y-0.835
X1.015Y-0.935
X1.015Y-1.035
X1.015Y-1.135
X1.015Y-1.235
X1.015Y-1.335
X1.015Y-1.435
X1.015Y-1.535
X1.115Y-0.835
X1.115Y-0.935
X1.115Y-1.035
X1.115Y-1.135
X1.115Y-1.235
X1.115Y-1.335
X1.115Y-1.435
X1.115Y-1.535
X1.46Y-1.545
X1.46Y-1.645
X1.46Y-1.745
X1.46Y-1.845
X1.46Y-1.945
X1.56Y-1.545
X1.56Y-1.645
X1.56Y-1.745
X1.56Y-1.845
X1.56Y-1.945
X1.69Y-3.18
X1.69Y-3.28
X1.69Y-3.38
X1.69Y-3.48
X1.69Y-3.58
X1.79Y-3.18
X1.79Y-3.28
X1.79Y-3.38
X1.79Y-3.48
X1.79Y-3.58
X3.795Y-1.375
X3.795Y-1.475
X3.795Y-1.575
X3.795Y-1.675
X3.795Y-1.775
X3.795Y-1.875
X3.795Y-1.975
X3.895Y-1.375
X3.895Y-1.475
X3.895Y-1.575
X3.895Y-1.675
X3.895Y-1.775
X3.895Y-1.875
X3.895Y-1.975
X4.135Y-2.875
X4.235Y-2.875
X4.6214Y-2.54
X4.6214Y-2.64
X4.6214Y-2.74
X5.2986Y-2.4802
X5.2986Y-2.6802
X5.2986Y-2.7802
X6.0898Y-0.6251
X6.0898Y-0.7251
X6.0898Y-0.8251
X6.0898Y-0.9251
X6.0898Y-1.0251
X6.0898Y-1.1251
X6.0898Y-1.2251
X6.0898Y-1.3251
X6.0898Y-1.4251
X6.0898Y-1.5251
X6.0898Y-1.6251
X6.0898Y-1.7251
X6.0898Y-1.8251
X6.0898Y-1.9251
X6.0898Y-2.0251
X6.1898Y-0.6251
X6.1898Y-0.7251
X6.1898Y-0.8251
X6.1898Y-0.9251
X6.1898Y-1.0251
X6.1898Y-1.1251
X6.1898Y-1.2251
X6.1898Y-1.3251
X6.1898Y-1.4251
X6.1898Y-1.5251
X6.1898Y-1.6251
X6.1898Y-1.7251
X6.1898Y-1.8251
X6.1898Y-1.9251
X6.1898Y-2.0251
T9
X6.0713Y-3.22
X6.0713Y-3.42
T10
X0.2Y-3.43
T11
X0.1Y-3.33
X0.1Y-3.53
X0.3Y-3.33
X0.3Y-3.53
T12
X0.3Y-1.17
X0.3Y-1.57
X0.305Y-0.46
X0.305Y-0.86
X0.305Y-1.88
X0.305Y-2.28
X0.305Y-2.59
X0.305Y-2.99
T13
X0.14Y-0.217
X0.14Y-3.717
T14
X1.1181Y-0.2992
X1.1181Y-3.6378
X2.2992Y-0.2992
X2.2992Y-3.6378
X6.1615Y-0.2363
X6.1615Y-3.7007
T15
X1.155Y-0.52
X1.155Y-2.32
X2.105Y-1.07
X4.105Y-0.47
X4.1538Y-2.37
T0
M30
