%TF.GenerationSoftware,KiCad,Pcbnew,7.0.1*%
%TF.CreationDate,2023-11-29T10:40:01+01:00*%
%TF.ProjectId,current100A_Artiq,63757272-656e-4743-9130-30415f417274,rev?*%
%TF.SameCoordinates,Original*%
%TF.FileFunction,AssemblyDrawing,Bot*%
%FSLAX46Y46*%
G04 Gerber Fmt 4.6, Leading zero omitted, Abs format (unit mm)*
G04 Created by KiCad (PCBNEW 7.0.1) date 2023-11-29 10:40:01*
%MOMM*%
%LPD*%
G01*
G04 APERTURE LIST*
%ADD10C,0.150000*%
%ADD11C,0.127000*%
%ADD12C,0.200000*%
G04 APERTURE END LIST*
D10*
%TO.C,M1*%
X94132739Y-58194676D02*
X93132739Y-58194676D01*
X93132739Y-58194676D02*
X93847024Y-58528009D01*
X93847024Y-58528009D02*
X93132739Y-58861342D01*
X93132739Y-58861342D02*
X94132739Y-58861342D01*
X94132739Y-59861342D02*
X94132739Y-59289914D01*
X94132739Y-59575628D02*
X93132739Y-59575628D01*
X93132739Y-59575628D02*
X93275596Y-59480390D01*
X93275596Y-59480390D02*
X93370834Y-59385152D01*
X93370834Y-59385152D02*
X93418453Y-59289914D01*
D11*
X107966920Y-71068000D02*
X2126920Y-71068000D01*
X107966920Y-71068000D02*
X107966920Y-55575200D01*
X108906920Y-71068000D02*
X108906920Y-55575200D01*
X131466920Y-71068000D02*
X108906920Y-71068000D01*
X126920Y-69068000D02*
X126920Y-3068000D01*
X107966920Y-52070000D02*
X107966920Y-33070800D01*
X108906920Y-52070000D02*
X108906920Y-33070800D01*
D10*
X-2710180Y-33756600D02*
X-2710180Y-19748500D01*
X126920Y-33756600D02*
X-2710180Y-33756600D01*
X134620Y-33756600D02*
X9621520Y-33756600D01*
X9621520Y-33756600D02*
X9621520Y-19748500D01*
D11*
X107966920Y-28448000D02*
X107966920Y-21132800D01*
X108906920Y-28448000D02*
X108906920Y-21132800D01*
D10*
X-2710180Y-19748500D02*
X126920Y-19748500D01*
X9621520Y-19748500D02*
X134620Y-19748500D01*
D11*
X107966920Y-17068800D02*
X107966920Y-1068000D01*
X108906920Y-17068800D02*
X108906920Y-1068000D01*
X133466920Y-3068000D02*
X133466920Y-69068000D01*
X2126920Y-1068000D02*
X107966920Y-1068000D01*
X108906920Y-1068000D02*
X131466920Y-1068000D01*
X126920Y-69068000D02*
G75*
G03*
X2126920Y-71068000I1999999J-1D01*
G01*
X131466920Y-71068000D02*
G75*
G03*
X133466920Y-69068000I1J1999999D01*
G01*
X108906920Y-55575199D02*
G75*
G03*
X107966920Y-55575200I-470000J-7462D01*
G01*
X107966920Y-52070001D02*
G75*
G03*
X108906920Y-52070000I470000J7462D01*
G01*
X108906920Y-33070799D02*
G75*
G03*
X107966920Y-33070800I-470000J-7461D01*
G01*
X107966920Y-28448001D02*
G75*
G03*
X108906920Y-28448000I470000J7461D01*
G01*
X108906920Y-21132799D02*
G75*
G03*
X107966920Y-21132800I-470000J-7461D01*
G01*
X107966920Y-17068801D02*
G75*
G03*
X108906920Y-17068800I470000J7461D01*
G01*
X2126920Y-1068000D02*
G75*
G03*
X126920Y-3068000I0J-2000000D01*
G01*
X133466920Y-3068000D02*
G75*
G03*
X131466920Y-1068000I-2000000J0D01*
G01*
D12*
X68806920Y-61948000D02*
G75*
G03*
X68806920Y-61948000I-100000J0D01*
G01*
X91666920Y-61948000D02*
G75*
G03*
X91666920Y-61948000I-100000J0D01*
G01*
X73886920Y-16228000D02*
G75*
G03*
X73886920Y-16228000I-100000J0D01*
G01*
X100810920Y-16228000D02*
G75*
G03*
X100810920Y-16228000I-100000J0D01*
G01*
%TD*%
M02*
