%TF.GenerationSoftware,KiCad,Pcbnew,7.0.1*%
%TF.CreationDate,2023-11-29T10:40:00+01:00*%
%TF.ProjectId,current100A_Artiq,63757272-656e-4743-9130-30415f417274,rev?*%
%TF.SameCoordinates,Original*%
%TF.FileFunction,Soldermask,Bot*%
%TF.FilePolarity,Negative*%
%FSLAX46Y46*%
G04 Gerber Fmt 4.6, Leading zero omitted, Abs format (unit mm)*
G04 Created by KiCad (PCBNEW 7.0.1) date 2023-11-29 10:40:00*
%MOMM*%
%LPD*%
G01*
G04 APERTURE LIST*
G04 Aperture macros list*
%AMRoundRect*
0 Rectangle with rounded corners*
0 $1 Rounding radius*
0 $2 $3 $4 $5 $6 $7 $8 $9 X,Y pos of 4 corners*
0 Add a 4 corners polygon primitive as box body*
4,1,4,$2,$3,$4,$5,$6,$7,$8,$9,$2,$3,0*
0 Add four circle primitives for the rounded corners*
1,1,$1+$1,$2,$3*
1,1,$1+$1,$4,$5*
1,1,$1+$1,$6,$7*
1,1,$1+$1,$8,$9*
0 Add four rect primitives between the rounded corners*
20,1,$1+$1,$2,$3,$4,$5,0*
20,1,$1+$1,$4,$5,$6,$7,0*
20,1,$1+$1,$6,$7,$8,$9,0*
20,1,$1+$1,$8,$9,$2,$3,0*%
G04 Aperture macros list end*
%ADD10RoundRect,0.050000X0.762000X0.762000X-0.762000X0.762000X-0.762000X-0.762000X0.762000X-0.762000X0*%
%ADD11C,1.624000*%
%ADD12RoundRect,0.050000X0.750000X0.750000X-0.750000X0.750000X-0.750000X-0.750000X0.750000X-0.750000X0*%
%ADD13RoundRect,0.050000X-0.750000X-0.750000X0.750000X-0.750000X0.750000X0.750000X-0.750000X0.750000X0*%
%ADD14RoundRect,0.300000X0.600000X0.600000X-0.600000X0.600000X-0.600000X-0.600000X0.600000X-0.600000X0*%
%ADD15C,1.800000*%
%ADD16C,2.350000*%
%ADD17RoundRect,0.050000X0.762000X-0.762000X0.762000X0.762000X-0.762000X0.762000X-0.762000X-0.762000X0*%
%ADD18C,2.100000*%
%ADD19C,5.700000*%
%ADD20RoundRect,0.050000X0.750000X-0.750000X0.750000X0.750000X-0.750000X0.750000X-0.750000X-0.750000X0*%
%ADD21O,2.600000X1.700000*%
%ADD22O,7.100000X3.600000*%
%ADD23C,4.800000*%
%ADD24RoundRect,0.300000X-0.600000X-0.600000X0.600000X-0.600000X0.600000X0.600000X-0.600000X0.600000X0*%
%ADD25O,2.600000X1.600000*%
%ADD26C,0.400000*%
%ADD27RoundRect,0.050000X-0.800000X-0.900000X0.800000X-0.900000X0.800000X0.900000X-0.800000X0.900000X0*%
%ADD28RoundRect,0.299999X1.550001X-0.790001X1.550001X0.790001X-1.550001X0.790001X-1.550001X-0.790001X0*%
%ADD29O,3.700000X2.180000*%
%ADD30RoundRect,0.050000X-0.750000X0.750000X-0.750000X-0.750000X0.750000X-0.750000X0.750000X0.750000X0*%
%ADD31C,3.300000*%
%ADD32RoundRect,0.050000X0.765000X-0.765000X0.765000X0.765000X-0.765000X0.765000X-0.765000X-0.765000X0*%
%ADD33C,1.630000*%
G04 APERTURE END LIST*
D10*
%TO.C,U33*%
X113665000Y-22225000D03*
D11*
X111125000Y-22225000D03*
X108585000Y-22225000D03*
X106045000Y-22225000D03*
%TD*%
D12*
%TO.C,PP2*%
X78740000Y-40132000D03*
%TD*%
D13*
%TO.C,PP5*%
X89916000Y-49657000D03*
%TD*%
D12*
%TO.C,PP1*%
X78740000Y-43180000D03*
%TD*%
D14*
%TO.C,J4*%
X45466000Y-90932000D03*
D15*
X42926000Y-90932000D03*
X45466000Y-88392000D03*
X42926000Y-88392000D03*
X45466000Y-85852000D03*
X42926000Y-85852000D03*
X45466000Y-83312000D03*
X42926000Y-83312000D03*
X45466000Y-80772000D03*
X42926000Y-80772000D03*
%TD*%
D16*
%TO.C,J2*%
X5080000Y-87122000D03*
X2540000Y-89662000D03*
X7620000Y-89662000D03*
X2540000Y-84582000D03*
X7620000Y-84582000D03*
%TD*%
D17*
%TO.C,U35*%
X126365000Y-40259000D03*
D11*
X126365000Y-37719000D03*
X126365000Y-35179000D03*
X126365000Y-32639000D03*
%TD*%
D18*
%TO.C,GND1*%
X105029000Y-73025000D03*
X107569000Y-73025000D03*
%TD*%
D19*
%TO.C,H6*%
X58400000Y-92400000D03*
%TD*%
D20*
%TO.C,VuC1*%
X135763000Y-80645000D03*
%TD*%
D12*
%TO.C,P5V1*%
X101219000Y-78486000D03*
%TD*%
D20*
%TO.C,P6V1*%
X110363000Y-90043000D03*
%TD*%
D21*
%TO.C,J9*%
X12700000Y-34798000D03*
D22*
X7620000Y-39878000D03*
D21*
X12700000Y-37338000D03*
D22*
X7620000Y-29718000D03*
%TD*%
D23*
%TO.C,H1*%
X3556000Y-5512000D03*
%TD*%
D21*
%TO.C,J11*%
X12827000Y-70866000D03*
D22*
X7747000Y-75946000D03*
D21*
X12827000Y-73406000D03*
D22*
X7747000Y-65786000D03*
%TD*%
D10*
%TO.C,U9*%
X70513800Y-77666000D03*
D11*
X67973800Y-77666000D03*
X65433800Y-77666000D03*
X62893800Y-77666000D03*
%TD*%
D13*
%TO.C,PP3*%
X79502000Y-26670000D03*
%TD*%
%TO.C,P12V1*%
X140843000Y-92329000D03*
%TD*%
D19*
%TO.C,H8*%
X156503000Y-93997000D03*
%TD*%
D24*
%TO.C,J12*%
X96393000Y-34925000D03*
D15*
X98933000Y-34925000D03*
X96393000Y-37465000D03*
X98933000Y-37465000D03*
X96393000Y-40005000D03*
X98933000Y-40005000D03*
X96393000Y-42545000D03*
X98933000Y-42545000D03*
X96393000Y-45085000D03*
X98933000Y-45085000D03*
X96393000Y-47625000D03*
X98933000Y-47625000D03*
X96393000Y-50165000D03*
X98933000Y-50165000D03*
%TD*%
D19*
%TO.C,H7*%
X156503000Y-6003000D03*
%TD*%
D23*
%TO.C,H2*%
X3556000Y-94412000D03*
%TD*%
D13*
%TO.C,PP7*%
X89916000Y-44577000D03*
%TD*%
D21*
%TO.C,J8*%
X12827000Y-52832000D03*
D22*
X7747000Y-57912000D03*
D21*
X12827000Y-55372000D03*
D22*
X7747000Y-47752000D03*
%TD*%
D17*
%TO.C,U34*%
X126365000Y-53467000D03*
D11*
X126365000Y-50927000D03*
X126365000Y-48387000D03*
X126365000Y-45847000D03*
%TD*%
D25*
%TO.C,U1*%
X134584000Y-70616000D03*
X134584000Y-68076000D03*
X134584000Y-62996000D03*
X117384000Y-64516000D03*
X117384000Y-67056000D03*
X117384000Y-69596000D03*
%TD*%
D14*
%TO.C,J7*%
X39624000Y-49403000D03*
D15*
X37084000Y-49403000D03*
X39624000Y-46863000D03*
X37084000Y-46863000D03*
X39624000Y-44323000D03*
X37084000Y-44323000D03*
X39624000Y-41783000D03*
X37084000Y-41783000D03*
X39624000Y-39243000D03*
X37084000Y-39243000D03*
%TD*%
D13*
%TO.C,PP4*%
X79883000Y-30607000D03*
%TD*%
%TO.C,PP6*%
X77724000Y-34544000D03*
%TD*%
D26*
%TO.C,U6*%
X111133000Y-78486000D03*
X111633000Y-77861000D03*
D27*
X111633000Y-78486000D03*
D26*
X111633000Y-79111000D03*
X112133000Y-78486000D03*
%TD*%
D21*
%TO.C,J10*%
X12827000Y-16764000D03*
D22*
X7747000Y-21844000D03*
D21*
X12827000Y-19304000D03*
D22*
X7747000Y-11684000D03*
%TD*%
D19*
%TO.C,H4*%
X28400000Y-92400000D03*
%TD*%
D24*
%TO.C,J5*%
X154679692Y-15877648D03*
D15*
X157219692Y-15877648D03*
X154679692Y-18417648D03*
X157219692Y-18417648D03*
X154679692Y-20957648D03*
X157219692Y-20957648D03*
X154679692Y-23497648D03*
X157219692Y-23497648D03*
X154679692Y-26037648D03*
X157219692Y-26037648D03*
X154679692Y-28577648D03*
X157219692Y-28577648D03*
X154679692Y-31117648D03*
X157219692Y-31117648D03*
X154679692Y-33657648D03*
X157219692Y-33657648D03*
X154679692Y-36197648D03*
X157219692Y-36197648D03*
X154679692Y-38737648D03*
X157219692Y-38737648D03*
X154679692Y-41277648D03*
X157219692Y-41277648D03*
X154679692Y-43817648D03*
X157219692Y-43817648D03*
X154679692Y-46357648D03*
X157219692Y-46357648D03*
X154679692Y-48897648D03*
X157219692Y-48897648D03*
X154679692Y-51437648D03*
X157219692Y-51437648D03*
%TD*%
D28*
%TO.C,J1*%
X154210500Y-86868000D03*
D29*
X154210500Y-81788000D03*
%TD*%
D30*
%TO.C,P2V1*%
X94234000Y-70485000D03*
%TD*%
D19*
%TO.C,H3*%
X28400000Y-7600000D03*
%TD*%
D14*
%TO.C,J14*%
X28321000Y-38989000D03*
D15*
X25781000Y-38989000D03*
X28321000Y-36449000D03*
X25781000Y-36449000D03*
X28321000Y-33909000D03*
X25781000Y-33909000D03*
X28321000Y-31369000D03*
X25781000Y-31369000D03*
X28321000Y-28829000D03*
X25781000Y-28829000D03*
X28321000Y-26289000D03*
X25781000Y-26289000D03*
X28321000Y-23749000D03*
X25781000Y-23749000D03*
X28321000Y-21209000D03*
X25781000Y-21209000D03*
%TD*%
D19*
%TO.C,H5*%
X58400000Y-7600000D03*
%TD*%
D31*
%TO.C,M1*%
X105506920Y-60198000D03*
X29336920Y-58928000D03*
X53466920Y-27178000D03*
X29336920Y-13208000D03*
X104266920Y-11938000D03*
D11*
X12827000Y-67818000D03*
X12750800Y-65278000D03*
X12827000Y-6858000D03*
X12827000Y-4318000D03*
D32*
X100710920Y-14478000D03*
D33*
X100710920Y-11938000D03*
X98170920Y-14478000D03*
X98170920Y-11938000D03*
X95630920Y-14478000D03*
X95630920Y-11938000D03*
X93090920Y-14478000D03*
X93090920Y-11938000D03*
X90550920Y-14478000D03*
X90550920Y-11938000D03*
X88010920Y-14478000D03*
X88010920Y-11938000D03*
X85470920Y-14478000D03*
X85470920Y-11938000D03*
X82930920Y-14478000D03*
X82930920Y-11938000D03*
X80390920Y-14478000D03*
X80390920Y-11938000D03*
X77850920Y-14478000D03*
X77850920Y-11938000D03*
D32*
X91566920Y-60198000D03*
D33*
X91566920Y-57658000D03*
X89026920Y-60198000D03*
X89026920Y-57658000D03*
X86486920Y-60198000D03*
X86486920Y-57658000D03*
X83946920Y-60198000D03*
X83946920Y-57658000D03*
X81406920Y-60198000D03*
X81406920Y-57658000D03*
X78866920Y-60198000D03*
X78866920Y-57658000D03*
X76326920Y-60198000D03*
X76326920Y-57658000D03*
X73786920Y-60198000D03*
X73786920Y-57658000D03*
D32*
X68706920Y-60198000D03*
D33*
X68706920Y-57658000D03*
X66166920Y-60198000D03*
X66166920Y-57658000D03*
X63626920Y-60198000D03*
X63626920Y-57658000D03*
X61086920Y-60198000D03*
X61086920Y-57658000D03*
X58546920Y-60198000D03*
X58546920Y-57658000D03*
X56006920Y-60198000D03*
X56006920Y-57658000D03*
X53466920Y-60198000D03*
X53466920Y-57658000D03*
X50926920Y-60198000D03*
X50926920Y-57658000D03*
X48386920Y-60198000D03*
X48386920Y-57658000D03*
X45846920Y-60198000D03*
X45846920Y-57658000D03*
X43306920Y-60198000D03*
X43306920Y-57658000D03*
X40766920Y-60198000D03*
X40766920Y-57658000D03*
X38226920Y-60198000D03*
X38226920Y-57658000D03*
X35686920Y-60198000D03*
X35686920Y-57658000D03*
X33146920Y-60198000D03*
X33146920Y-57658000D03*
D32*
X73786920Y-14478000D03*
D33*
X73786920Y-11938000D03*
X71246920Y-14478000D03*
X71246920Y-11938000D03*
X68706920Y-14478000D03*
X68706920Y-11938000D03*
X66166920Y-14478000D03*
X66166920Y-11938000D03*
X63626920Y-14478000D03*
X63626920Y-11938000D03*
X61086920Y-14478000D03*
X61086920Y-11938000D03*
X58546920Y-14478000D03*
X58546920Y-11938000D03*
X56006920Y-14478000D03*
X56006920Y-11938000D03*
X53466920Y-14478000D03*
X53466920Y-11938000D03*
X50926920Y-14478000D03*
X50926920Y-11938000D03*
X48386920Y-14478000D03*
X48386920Y-11938000D03*
X45846920Y-14478000D03*
X45846920Y-11938000D03*
X43306920Y-14478000D03*
X43306920Y-11938000D03*
X40766920Y-14478000D03*
X40766920Y-11938000D03*
X38226920Y-14478000D03*
X38226920Y-11938000D03*
X35686920Y-14478000D03*
X35686920Y-11938000D03*
X33146920Y-14478000D03*
X33146920Y-11938000D03*
%TD*%
M02*
