%TF.GenerationSoftware,KiCad,Pcbnew,7.0.1*%
%TF.CreationDate,2023-11-29T10:40:00+01:00*%
%TF.ProjectId,current100A_Artiq,63757272-656e-4743-9130-30415f417274,rev?*%
%TF.SameCoordinates,Original*%
%TF.FileFunction,Legend,Bot*%
%TF.FilePolarity,Positive*%
%FSLAX46Y46*%
G04 Gerber Fmt 4.6, Leading zero omitted, Abs format (unit mm)*
G04 Created by KiCad (PCBNEW 7.0.1) date 2023-11-29 10:40:00*
%MOMM*%
%LPD*%
G01*
G04 APERTURE LIST*
G04 Aperture macros list*
%AMRoundRect*
0 Rectangle with rounded corners*
0 $1 Rounding radius*
0 $2 $3 $4 $5 $6 $7 $8 $9 X,Y pos of 4 corners*
0 Add a 4 corners polygon primitive as box body*
4,1,4,$2,$3,$4,$5,$6,$7,$8,$9,$2,$3,0*
0 Add four circle primitives for the rounded corners*
1,1,$1+$1,$2,$3*
1,1,$1+$1,$4,$5*
1,1,$1+$1,$6,$7*
1,1,$1+$1,$8,$9*
0 Add four rect primitives between the rounded corners*
20,1,$1+$1,$2,$3,$4,$5,0*
20,1,$1+$1,$4,$5,$6,$7,0*
20,1,$1+$1,$6,$7,$8,$9,0*
20,1,$1+$1,$8,$9,$2,$3,0*%
G04 Aperture macros list end*
%ADD10C,0.600000*%
%ADD11C,0.400000*%
%ADD12C,0.300000*%
%ADD13C,0.120000*%
%ADD14C,0.127000*%
%ADD15C,0.150000*%
%ADD16C,0.200000*%
%ADD17RoundRect,0.050000X0.762000X0.762000X-0.762000X0.762000X-0.762000X-0.762000X0.762000X-0.762000X0*%
%ADD18C,1.624000*%
%ADD19RoundRect,0.050000X0.750000X0.750000X-0.750000X0.750000X-0.750000X-0.750000X0.750000X-0.750000X0*%
%ADD20RoundRect,0.050000X-0.750000X-0.750000X0.750000X-0.750000X0.750000X0.750000X-0.750000X0.750000X0*%
%ADD21RoundRect,0.300000X0.600000X0.600000X-0.600000X0.600000X-0.600000X-0.600000X0.600000X-0.600000X0*%
%ADD22C,1.800000*%
%ADD23C,2.350000*%
%ADD24RoundRect,0.050000X0.762000X-0.762000X0.762000X0.762000X-0.762000X0.762000X-0.762000X-0.762000X0*%
%ADD25C,2.100000*%
%ADD26C,5.700000*%
%ADD27RoundRect,0.050000X0.750000X-0.750000X0.750000X0.750000X-0.750000X0.750000X-0.750000X-0.750000X0*%
%ADD28O,2.600000X1.700000*%
%ADD29O,7.100000X3.600000*%
%ADD30C,4.800000*%
%ADD31RoundRect,0.300000X-0.600000X-0.600000X0.600000X-0.600000X0.600000X0.600000X-0.600000X0.600000X0*%
%ADD32O,2.600000X1.600000*%
%ADD33C,0.400000*%
%ADD34RoundRect,0.050000X-0.800000X-0.900000X0.800000X-0.900000X0.800000X0.900000X-0.800000X0.900000X0*%
%ADD35RoundRect,0.299999X1.550001X-0.790001X1.550001X0.790001X-1.550001X0.790001X-1.550001X-0.790001X0*%
%ADD36O,3.700000X2.180000*%
%ADD37RoundRect,0.050000X-0.750000X0.750000X-0.750000X-0.750000X0.750000X-0.750000X0.750000X0.750000X0*%
%ADD38C,3.300000*%
%ADD39RoundRect,0.050000X0.765000X-0.765000X0.765000X0.765000X-0.765000X0.765000X-0.765000X-0.765000X0*%
%ADD40C,1.630000*%
G04 APERTURE END LIST*
D10*
X91868714Y-78372857D02*
X91868714Y-75372857D01*
X91868714Y-75372857D02*
X90154428Y-78372857D01*
X90154428Y-78372857D02*
X90154428Y-75372857D01*
X87011571Y-78087142D02*
X87154428Y-78230000D01*
X87154428Y-78230000D02*
X87583000Y-78372857D01*
X87583000Y-78372857D02*
X87868714Y-78372857D01*
X87868714Y-78372857D02*
X88297285Y-78230000D01*
X88297285Y-78230000D02*
X88583000Y-77944285D01*
X88583000Y-77944285D02*
X88725857Y-77658571D01*
X88725857Y-77658571D02*
X88868714Y-77087142D01*
X88868714Y-77087142D02*
X88868714Y-76658571D01*
X88868714Y-76658571D02*
X88725857Y-76087142D01*
X88725857Y-76087142D02*
X88583000Y-75801428D01*
X88583000Y-75801428D02*
X88297285Y-75515714D01*
X88297285Y-75515714D02*
X87868714Y-75372857D01*
X87868714Y-75372857D02*
X87583000Y-75372857D01*
X87583000Y-75372857D02*
X87154428Y-75515714D01*
X87154428Y-75515714D02*
X87011571Y-75658571D01*
X85725857Y-75372857D02*
X85725857Y-77801428D01*
X85725857Y-77801428D02*
X85583000Y-78087142D01*
X85583000Y-78087142D02*
X85440143Y-78230000D01*
X85440143Y-78230000D02*
X85154428Y-78372857D01*
X85154428Y-78372857D02*
X84583000Y-78372857D01*
X84583000Y-78372857D02*
X84297285Y-78230000D01*
X84297285Y-78230000D02*
X84154428Y-78087142D01*
X84154428Y-78087142D02*
X84011571Y-77801428D01*
X84011571Y-77801428D02*
X84011571Y-75372857D01*
X80725857Y-75372857D02*
X79011572Y-75372857D01*
X79868714Y-78372857D02*
X79868714Y-75372857D01*
X77583000Y-78372857D02*
X77868715Y-78230000D01*
X77868715Y-78230000D02*
X78011572Y-78087142D01*
X78011572Y-78087142D02*
X78154429Y-77801428D01*
X78154429Y-77801428D02*
X78154429Y-76944285D01*
X78154429Y-76944285D02*
X78011572Y-76658571D01*
X78011572Y-76658571D02*
X77868715Y-76515714D01*
X77868715Y-76515714D02*
X77583000Y-76372857D01*
X77583000Y-76372857D02*
X77154429Y-76372857D01*
X77154429Y-76372857D02*
X76868715Y-76515714D01*
X76868715Y-76515714D02*
X76725858Y-76658571D01*
X76725858Y-76658571D02*
X76583000Y-76944285D01*
X76583000Y-76944285D02*
X76583000Y-77801428D01*
X76583000Y-77801428D02*
X76725858Y-78087142D01*
X76725858Y-78087142D02*
X76868715Y-78230000D01*
X76868715Y-78230000D02*
X77154429Y-78372857D01*
X77154429Y-78372857D02*
X77583000Y-78372857D01*
X75297286Y-78372857D02*
X75297286Y-76372857D01*
X75297286Y-76944285D02*
X75154429Y-76658571D01*
X75154429Y-76658571D02*
X75011572Y-76515714D01*
X75011572Y-76515714D02*
X74725857Y-76372857D01*
X74725857Y-76372857D02*
X74440143Y-76372857D01*
X72154429Y-76372857D02*
X72154429Y-78372857D01*
X73440143Y-76372857D02*
X73440143Y-77944285D01*
X73440143Y-77944285D02*
X73297286Y-78230000D01*
X73297286Y-78230000D02*
X73011571Y-78372857D01*
X73011571Y-78372857D02*
X72583000Y-78372857D01*
X72583000Y-78372857D02*
X72297286Y-78230000D01*
X72297286Y-78230000D02*
X72154429Y-78087142D01*
X70725857Y-76372857D02*
X70725857Y-78372857D01*
X70725857Y-76658571D02*
X70583000Y-76515714D01*
X70583000Y-76515714D02*
X70297285Y-76372857D01*
X70297285Y-76372857D02*
X69868714Y-76372857D01*
X69868714Y-76372857D02*
X69583000Y-76515714D01*
X69583000Y-76515714D02*
X69440143Y-76801428D01*
X69440143Y-76801428D02*
X69440143Y-78372857D01*
X69868714Y-75230000D02*
X70297285Y-75658571D01*
D11*
X151984763Y-74685238D02*
X153127620Y-74685238D01*
X152556192Y-74685238D02*
X152556192Y-72685238D01*
X152556192Y-72685238D02*
X152746668Y-72970952D01*
X152746668Y-72970952D02*
X152937144Y-73161428D01*
X152937144Y-73161428D02*
X153127620Y-73256666D01*
X150746668Y-72685238D02*
X150556191Y-72685238D01*
X150556191Y-72685238D02*
X150365715Y-72780476D01*
X150365715Y-72780476D02*
X150270477Y-72875714D01*
X150270477Y-72875714D02*
X150175239Y-73066190D01*
X150175239Y-73066190D02*
X150080001Y-73447142D01*
X150080001Y-73447142D02*
X150080001Y-73923333D01*
X150080001Y-73923333D02*
X150175239Y-74304285D01*
X150175239Y-74304285D02*
X150270477Y-74494761D01*
X150270477Y-74494761D02*
X150365715Y-74590000D01*
X150365715Y-74590000D02*
X150556191Y-74685238D01*
X150556191Y-74685238D02*
X150746668Y-74685238D01*
X150746668Y-74685238D02*
X150937144Y-74590000D01*
X150937144Y-74590000D02*
X151032382Y-74494761D01*
X151032382Y-74494761D02*
X151127620Y-74304285D01*
X151127620Y-74304285D02*
X151222858Y-73923333D01*
X151222858Y-73923333D02*
X151222858Y-73447142D01*
X151222858Y-73447142D02*
X151127620Y-73066190D01*
X151127620Y-73066190D02*
X151032382Y-72875714D01*
X151032382Y-72875714D02*
X150937144Y-72780476D01*
X150937144Y-72780476D02*
X150746668Y-72685238D01*
X148841906Y-72685238D02*
X148651429Y-72685238D01*
X148651429Y-72685238D02*
X148460953Y-72780476D01*
X148460953Y-72780476D02*
X148365715Y-72875714D01*
X148365715Y-72875714D02*
X148270477Y-73066190D01*
X148270477Y-73066190D02*
X148175239Y-73447142D01*
X148175239Y-73447142D02*
X148175239Y-73923333D01*
X148175239Y-73923333D02*
X148270477Y-74304285D01*
X148270477Y-74304285D02*
X148365715Y-74494761D01*
X148365715Y-74494761D02*
X148460953Y-74590000D01*
X148460953Y-74590000D02*
X148651429Y-74685238D01*
X148651429Y-74685238D02*
X148841906Y-74685238D01*
X148841906Y-74685238D02*
X149032382Y-74590000D01*
X149032382Y-74590000D02*
X149127620Y-74494761D01*
X149127620Y-74494761D02*
X149222858Y-74304285D01*
X149222858Y-74304285D02*
X149318096Y-73923333D01*
X149318096Y-73923333D02*
X149318096Y-73447142D01*
X149318096Y-73447142D02*
X149222858Y-73066190D01*
X149222858Y-73066190D02*
X149127620Y-72875714D01*
X149127620Y-72875714D02*
X149032382Y-72780476D01*
X149032382Y-72780476D02*
X148841906Y-72685238D01*
X147413334Y-74113809D02*
X146460953Y-74113809D01*
X147603810Y-74685238D02*
X146937144Y-72685238D01*
X146937144Y-72685238D02*
X146270477Y-74685238D01*
X142937143Y-74494761D02*
X143032381Y-74590000D01*
X143032381Y-74590000D02*
X143318095Y-74685238D01*
X143318095Y-74685238D02*
X143508571Y-74685238D01*
X143508571Y-74685238D02*
X143794286Y-74590000D01*
X143794286Y-74590000D02*
X143984762Y-74399523D01*
X143984762Y-74399523D02*
X144080000Y-74209047D01*
X144080000Y-74209047D02*
X144175238Y-73828095D01*
X144175238Y-73828095D02*
X144175238Y-73542380D01*
X144175238Y-73542380D02*
X144080000Y-73161428D01*
X144080000Y-73161428D02*
X143984762Y-72970952D01*
X143984762Y-72970952D02*
X143794286Y-72780476D01*
X143794286Y-72780476D02*
X143508571Y-72685238D01*
X143508571Y-72685238D02*
X143318095Y-72685238D01*
X143318095Y-72685238D02*
X143032381Y-72780476D01*
X143032381Y-72780476D02*
X142937143Y-72875714D01*
X142080000Y-72685238D02*
X142080000Y-74304285D01*
X142080000Y-74304285D02*
X141984762Y-74494761D01*
X141984762Y-74494761D02*
X141889524Y-74590000D01*
X141889524Y-74590000D02*
X141699048Y-74685238D01*
X141699048Y-74685238D02*
X141318095Y-74685238D01*
X141318095Y-74685238D02*
X141127619Y-74590000D01*
X141127619Y-74590000D02*
X141032381Y-74494761D01*
X141032381Y-74494761D02*
X140937143Y-74304285D01*
X140937143Y-74304285D02*
X140937143Y-72685238D01*
X138841905Y-74685238D02*
X139508572Y-73732857D01*
X139984762Y-74685238D02*
X139984762Y-72685238D01*
X139984762Y-72685238D02*
X139222857Y-72685238D01*
X139222857Y-72685238D02*
X139032381Y-72780476D01*
X139032381Y-72780476D02*
X138937143Y-72875714D01*
X138937143Y-72875714D02*
X138841905Y-73066190D01*
X138841905Y-73066190D02*
X138841905Y-73351904D01*
X138841905Y-73351904D02*
X138937143Y-73542380D01*
X138937143Y-73542380D02*
X139032381Y-73637619D01*
X139032381Y-73637619D02*
X139222857Y-73732857D01*
X139222857Y-73732857D02*
X139984762Y-73732857D01*
X136841905Y-74685238D02*
X137508572Y-73732857D01*
X137984762Y-74685238D02*
X137984762Y-72685238D01*
X137984762Y-72685238D02*
X137222857Y-72685238D01*
X137222857Y-72685238D02*
X137032381Y-72780476D01*
X137032381Y-72780476D02*
X136937143Y-72875714D01*
X136937143Y-72875714D02*
X136841905Y-73066190D01*
X136841905Y-73066190D02*
X136841905Y-73351904D01*
X136841905Y-73351904D02*
X136937143Y-73542380D01*
X136937143Y-73542380D02*
X137032381Y-73637619D01*
X137032381Y-73637619D02*
X137222857Y-73732857D01*
X137222857Y-73732857D02*
X137984762Y-73732857D01*
X135984762Y-73637619D02*
X135318095Y-73637619D01*
X135032381Y-74685238D02*
X135984762Y-74685238D01*
X135984762Y-74685238D02*
X135984762Y-72685238D01*
X135984762Y-72685238D02*
X135032381Y-72685238D01*
X134175238Y-74685238D02*
X134175238Y-72685238D01*
X134175238Y-72685238D02*
X133032381Y-74685238D01*
X133032381Y-74685238D02*
X133032381Y-72685238D01*
X132365714Y-72685238D02*
X131222857Y-72685238D01*
X131794286Y-74685238D02*
X131794286Y-72685238D01*
X127889523Y-74494761D02*
X127984761Y-74590000D01*
X127984761Y-74590000D02*
X128270475Y-74685238D01*
X128270475Y-74685238D02*
X128460951Y-74685238D01*
X128460951Y-74685238D02*
X128746666Y-74590000D01*
X128746666Y-74590000D02*
X128937142Y-74399523D01*
X128937142Y-74399523D02*
X129032380Y-74209047D01*
X129032380Y-74209047D02*
X129127618Y-73828095D01*
X129127618Y-73828095D02*
X129127618Y-73542380D01*
X129127618Y-73542380D02*
X129032380Y-73161428D01*
X129032380Y-73161428D02*
X128937142Y-72970952D01*
X128937142Y-72970952D02*
X128746666Y-72780476D01*
X128746666Y-72780476D02*
X128460951Y-72685238D01*
X128460951Y-72685238D02*
X128270475Y-72685238D01*
X128270475Y-72685238D02*
X127984761Y-72780476D01*
X127984761Y-72780476D02*
X127889523Y-72875714D01*
X126651428Y-72685238D02*
X126270475Y-72685238D01*
X126270475Y-72685238D02*
X126079999Y-72780476D01*
X126079999Y-72780476D02*
X125889523Y-72970952D01*
X125889523Y-72970952D02*
X125794285Y-73351904D01*
X125794285Y-73351904D02*
X125794285Y-74018571D01*
X125794285Y-74018571D02*
X125889523Y-74399523D01*
X125889523Y-74399523D02*
X126079999Y-74590000D01*
X126079999Y-74590000D02*
X126270475Y-74685238D01*
X126270475Y-74685238D02*
X126651428Y-74685238D01*
X126651428Y-74685238D02*
X126841904Y-74590000D01*
X126841904Y-74590000D02*
X127032380Y-74399523D01*
X127032380Y-74399523D02*
X127127618Y-74018571D01*
X127127618Y-74018571D02*
X127127618Y-73351904D01*
X127127618Y-73351904D02*
X127032380Y-72970952D01*
X127032380Y-72970952D02*
X126841904Y-72780476D01*
X126841904Y-72780476D02*
X126651428Y-72685238D01*
X124937142Y-74685238D02*
X124937142Y-72685238D01*
X124937142Y-72685238D02*
X123794285Y-74685238D01*
X123794285Y-74685238D02*
X123794285Y-72685238D01*
X123127618Y-72685238D02*
X121984761Y-72685238D01*
X122556190Y-74685238D02*
X122556190Y-72685238D01*
X120175237Y-74685238D02*
X120841904Y-73732857D01*
X121318094Y-74685238D02*
X121318094Y-72685238D01*
X121318094Y-72685238D02*
X120556189Y-72685238D01*
X120556189Y-72685238D02*
X120365713Y-72780476D01*
X120365713Y-72780476D02*
X120270475Y-72875714D01*
X120270475Y-72875714D02*
X120175237Y-73066190D01*
X120175237Y-73066190D02*
X120175237Y-73351904D01*
X120175237Y-73351904D02*
X120270475Y-73542380D01*
X120270475Y-73542380D02*
X120365713Y-73637619D01*
X120365713Y-73637619D02*
X120556189Y-73732857D01*
X120556189Y-73732857D02*
X121318094Y-73732857D01*
X118937142Y-72685238D02*
X118556189Y-72685238D01*
X118556189Y-72685238D02*
X118365713Y-72780476D01*
X118365713Y-72780476D02*
X118175237Y-72970952D01*
X118175237Y-72970952D02*
X118079999Y-73351904D01*
X118079999Y-73351904D02*
X118079999Y-74018571D01*
X118079999Y-74018571D02*
X118175237Y-74399523D01*
X118175237Y-74399523D02*
X118365713Y-74590000D01*
X118365713Y-74590000D02*
X118556189Y-74685238D01*
X118556189Y-74685238D02*
X118937142Y-74685238D01*
X118937142Y-74685238D02*
X119127618Y-74590000D01*
X119127618Y-74590000D02*
X119318094Y-74399523D01*
X119318094Y-74399523D02*
X119413332Y-74018571D01*
X119413332Y-74018571D02*
X119413332Y-73351904D01*
X119413332Y-73351904D02*
X119318094Y-72970952D01*
X119318094Y-72970952D02*
X119127618Y-72780476D01*
X119127618Y-72780476D02*
X118937142Y-72685238D01*
X116270475Y-74685238D02*
X117222856Y-74685238D01*
X117222856Y-74685238D02*
X117222856Y-72685238D01*
X114651427Y-74685238D02*
X115603808Y-74685238D01*
X115603808Y-74685238D02*
X115603808Y-72685238D01*
X113984760Y-73637619D02*
X113318093Y-73637619D01*
X113032379Y-74685238D02*
X113984760Y-74685238D01*
X113984760Y-74685238D02*
X113984760Y-72685238D01*
X113984760Y-72685238D02*
X113032379Y-72685238D01*
X111032379Y-74685238D02*
X111699046Y-73732857D01*
X112175236Y-74685238D02*
X112175236Y-72685238D01*
X112175236Y-72685238D02*
X111413331Y-72685238D01*
X111413331Y-72685238D02*
X111222855Y-72780476D01*
X111222855Y-72780476D02*
X111127617Y-72875714D01*
X111127617Y-72875714D02*
X111032379Y-73066190D01*
X111032379Y-73066190D02*
X111032379Y-73351904D01*
X111032379Y-73351904D02*
X111127617Y-73542380D01*
X111127617Y-73542380D02*
X111222855Y-73637619D01*
X111222855Y-73637619D02*
X111413331Y-73732857D01*
X111413331Y-73732857D02*
X112175236Y-73732857D01*
D12*
X139544285Y-77031428D02*
X138972857Y-77031428D01*
X139330000Y-78031428D02*
X139330000Y-76745714D01*
X139330000Y-76745714D02*
X139258571Y-76602857D01*
X139258571Y-76602857D02*
X139115714Y-76531428D01*
X139115714Y-76531428D02*
X138972857Y-76531428D01*
X138258571Y-78031428D02*
X138401428Y-77960000D01*
X138401428Y-77960000D02*
X138472857Y-77888571D01*
X138472857Y-77888571D02*
X138544285Y-77745714D01*
X138544285Y-77745714D02*
X138544285Y-77317142D01*
X138544285Y-77317142D02*
X138472857Y-77174285D01*
X138472857Y-77174285D02*
X138401428Y-77102857D01*
X138401428Y-77102857D02*
X138258571Y-77031428D01*
X138258571Y-77031428D02*
X138044285Y-77031428D01*
X138044285Y-77031428D02*
X137901428Y-77102857D01*
X137901428Y-77102857D02*
X137830000Y-77174285D01*
X137830000Y-77174285D02*
X137758571Y-77317142D01*
X137758571Y-77317142D02*
X137758571Y-77745714D01*
X137758571Y-77745714D02*
X137830000Y-77888571D01*
X137830000Y-77888571D02*
X137901428Y-77960000D01*
X137901428Y-77960000D02*
X138044285Y-78031428D01*
X138044285Y-78031428D02*
X138258571Y-78031428D01*
X137115714Y-78031428D02*
X137115714Y-77031428D01*
X137115714Y-77317142D02*
X137044285Y-77174285D01*
X137044285Y-77174285D02*
X136972857Y-77102857D01*
X136972857Y-77102857D02*
X136829999Y-77031428D01*
X136829999Y-77031428D02*
X136687142Y-77031428D01*
X135044286Y-78031428D02*
X135044286Y-76531428D01*
X135044286Y-76531428D02*
X134544286Y-77602857D01*
X134544286Y-77602857D02*
X134044286Y-76531428D01*
X134044286Y-76531428D02*
X134044286Y-78031428D01*
X133044285Y-76531428D02*
X132758571Y-76531428D01*
X132758571Y-76531428D02*
X132615714Y-76602857D01*
X132615714Y-76602857D02*
X132472857Y-76745714D01*
X132472857Y-76745714D02*
X132401428Y-77031428D01*
X132401428Y-77031428D02*
X132401428Y-77531428D01*
X132401428Y-77531428D02*
X132472857Y-77817142D01*
X132472857Y-77817142D02*
X132615714Y-77960000D01*
X132615714Y-77960000D02*
X132758571Y-78031428D01*
X132758571Y-78031428D02*
X133044285Y-78031428D01*
X133044285Y-78031428D02*
X133187143Y-77960000D01*
X133187143Y-77960000D02*
X133330000Y-77817142D01*
X133330000Y-77817142D02*
X133401428Y-77531428D01*
X133401428Y-77531428D02*
X133401428Y-77031428D01*
X133401428Y-77031428D02*
X133330000Y-76745714D01*
X133330000Y-76745714D02*
X133187143Y-76602857D01*
X133187143Y-76602857D02*
X133044285Y-76531428D01*
X131972856Y-76531428D02*
X131115714Y-76531428D01*
X131544285Y-78031428D02*
X131544285Y-76531428D01*
X128830000Y-77960000D02*
X128972857Y-78031428D01*
X128972857Y-78031428D02*
X129258571Y-78031428D01*
X129258571Y-78031428D02*
X129401428Y-77960000D01*
X129401428Y-77960000D02*
X129472857Y-77888571D01*
X129472857Y-77888571D02*
X129544285Y-77745714D01*
X129544285Y-77745714D02*
X129544285Y-77317142D01*
X129544285Y-77317142D02*
X129472857Y-77174285D01*
X129472857Y-77174285D02*
X129401428Y-77102857D01*
X129401428Y-77102857D02*
X129258571Y-77031428D01*
X129258571Y-77031428D02*
X128972857Y-77031428D01*
X128972857Y-77031428D02*
X128830000Y-77102857D01*
X127972857Y-78031428D02*
X128115714Y-77960000D01*
X128115714Y-77960000D02*
X128187143Y-77888571D01*
X128187143Y-77888571D02*
X128258571Y-77745714D01*
X128258571Y-77745714D02*
X128258571Y-77317142D01*
X128258571Y-77317142D02*
X128187143Y-77174285D01*
X128187143Y-77174285D02*
X128115714Y-77102857D01*
X128115714Y-77102857D02*
X127972857Y-77031428D01*
X127972857Y-77031428D02*
X127758571Y-77031428D01*
X127758571Y-77031428D02*
X127615714Y-77102857D01*
X127615714Y-77102857D02*
X127544286Y-77174285D01*
X127544286Y-77174285D02*
X127472857Y-77317142D01*
X127472857Y-77317142D02*
X127472857Y-77745714D01*
X127472857Y-77745714D02*
X127544286Y-77888571D01*
X127544286Y-77888571D02*
X127615714Y-77960000D01*
X127615714Y-77960000D02*
X127758571Y-78031428D01*
X127758571Y-78031428D02*
X127972857Y-78031428D01*
X126830000Y-78031428D02*
X126830000Y-77031428D01*
X126830000Y-76531428D02*
X126901428Y-76602857D01*
X126901428Y-76602857D02*
X126830000Y-76674285D01*
X126830000Y-76674285D02*
X126758571Y-76602857D01*
X126758571Y-76602857D02*
X126830000Y-76531428D01*
X126830000Y-76531428D02*
X126830000Y-76674285D01*
X125901428Y-78031428D02*
X126044285Y-77960000D01*
X126044285Y-77960000D02*
X126115714Y-77817142D01*
X126115714Y-77817142D02*
X126115714Y-76531428D01*
X125401428Y-77960000D02*
X125258571Y-78031428D01*
X125258571Y-78031428D02*
X124972857Y-78031428D01*
X124972857Y-78031428D02*
X124830000Y-77960000D01*
X124830000Y-77960000D02*
X124758571Y-77817142D01*
X124758571Y-77817142D02*
X124758571Y-77745714D01*
X124758571Y-77745714D02*
X124830000Y-77602857D01*
X124830000Y-77602857D02*
X124972857Y-77531428D01*
X124972857Y-77531428D02*
X125187143Y-77531428D01*
X125187143Y-77531428D02*
X125330000Y-77460000D01*
X125330000Y-77460000D02*
X125401428Y-77317142D01*
X125401428Y-77317142D02*
X125401428Y-77245714D01*
X125401428Y-77245714D02*
X125330000Y-77102857D01*
X125330000Y-77102857D02*
X125187143Y-77031428D01*
X125187143Y-77031428D02*
X124972857Y-77031428D01*
X124972857Y-77031428D02*
X124830000Y-77102857D01*
X141615712Y-80461428D02*
X141615712Y-78961428D01*
X141615712Y-79532857D02*
X141472855Y-79461428D01*
X141472855Y-79461428D02*
X141187140Y-79461428D01*
X141187140Y-79461428D02*
X141044283Y-79532857D01*
X141044283Y-79532857D02*
X140972855Y-79604285D01*
X140972855Y-79604285D02*
X140901426Y-79747142D01*
X140901426Y-79747142D02*
X140901426Y-80175714D01*
X140901426Y-80175714D02*
X140972855Y-80318571D01*
X140972855Y-80318571D02*
X141044283Y-80390000D01*
X141044283Y-80390000D02*
X141187140Y-80461428D01*
X141187140Y-80461428D02*
X141472855Y-80461428D01*
X141472855Y-80461428D02*
X141615712Y-80390000D01*
X140401426Y-79461428D02*
X140044283Y-80461428D01*
X139687140Y-79461428D02*
X140044283Y-80461428D01*
X140044283Y-80461428D02*
X140187140Y-80818571D01*
X140187140Y-80818571D02*
X140258569Y-80890000D01*
X140258569Y-80890000D02*
X140401426Y-80961428D01*
X138044283Y-80032857D02*
X137329998Y-80032857D01*
X138187140Y-80461428D02*
X137687140Y-78961428D01*
X137687140Y-78961428D02*
X137187140Y-80461428D01*
X135972855Y-80461428D02*
X136687141Y-80461428D01*
X136687141Y-80461428D02*
X136687141Y-78961428D01*
X134901426Y-80390000D02*
X135044283Y-80461428D01*
X135044283Y-80461428D02*
X135329998Y-80461428D01*
X135329998Y-80461428D02*
X135472855Y-80390000D01*
X135472855Y-80390000D02*
X135544283Y-80247142D01*
X135544283Y-80247142D02*
X135544283Y-79675714D01*
X135544283Y-79675714D02*
X135472855Y-79532857D01*
X135472855Y-79532857D02*
X135329998Y-79461428D01*
X135329998Y-79461428D02*
X135044283Y-79461428D01*
X135044283Y-79461428D02*
X134901426Y-79532857D01*
X134901426Y-79532857D02*
X134829998Y-79675714D01*
X134829998Y-79675714D02*
X134829998Y-79818571D01*
X134829998Y-79818571D02*
X135544283Y-79961428D01*
X132115712Y-79747142D02*
X132187141Y-79675714D01*
X132187141Y-79675714D02*
X132329998Y-79604285D01*
X132329998Y-79604285D02*
X132472855Y-79604285D01*
X132472855Y-79604285D02*
X132615712Y-79675714D01*
X132615712Y-79675714D02*
X132687141Y-79747142D01*
X132687141Y-79747142D02*
X132758569Y-79890000D01*
X132758569Y-79890000D02*
X132758569Y-80032857D01*
X132758569Y-80032857D02*
X132687141Y-80175714D01*
X132687141Y-80175714D02*
X132615712Y-80247142D01*
X132615712Y-80247142D02*
X132472855Y-80318571D01*
X132472855Y-80318571D02*
X132329998Y-80318571D01*
X132329998Y-80318571D02*
X132187141Y-80247142D01*
X132187141Y-80247142D02*
X132115712Y-80175714D01*
X132115712Y-79604285D02*
X132115712Y-80175714D01*
X132115712Y-80175714D02*
X132044284Y-80247142D01*
X132044284Y-80247142D02*
X131972855Y-80247142D01*
X131972855Y-80247142D02*
X131829998Y-80175714D01*
X131829998Y-80175714D02*
X131758569Y-80032857D01*
X131758569Y-80032857D02*
X131758569Y-79675714D01*
X131758569Y-79675714D02*
X131901427Y-79461428D01*
X131901427Y-79461428D02*
X132115712Y-79318571D01*
X132115712Y-79318571D02*
X132401427Y-79247142D01*
X132401427Y-79247142D02*
X132687141Y-79318571D01*
X132687141Y-79318571D02*
X132901427Y-79461428D01*
X132901427Y-79461428D02*
X133044284Y-79675714D01*
X133044284Y-79675714D02*
X133115712Y-79961428D01*
X133115712Y-79961428D02*
X133044284Y-80247142D01*
X133044284Y-80247142D02*
X132901427Y-80461428D01*
X132901427Y-80461428D02*
X132687141Y-80604285D01*
X132687141Y-80604285D02*
X132401427Y-80675714D01*
X132401427Y-80675714D02*
X132115712Y-80604285D01*
X132115712Y-80604285D02*
X131901427Y-80461428D01*
X130329998Y-80461428D02*
X131187141Y-80461428D01*
X130758570Y-80461428D02*
X130758570Y-78961428D01*
X130758570Y-78961428D02*
X130901427Y-79175714D01*
X130901427Y-79175714D02*
X131044284Y-79318571D01*
X131044284Y-79318571D02*
X131187141Y-79390000D01*
X128901427Y-80461428D02*
X129758570Y-80461428D01*
X129329999Y-80461428D02*
X129329999Y-78961428D01*
X129329999Y-78961428D02*
X129472856Y-79175714D01*
X129472856Y-79175714D02*
X129615713Y-79318571D01*
X129615713Y-79318571D02*
X129758570Y-79390000D01*
X128258571Y-80318571D02*
X128187142Y-80390000D01*
X128187142Y-80390000D02*
X128258571Y-80461428D01*
X128258571Y-80461428D02*
X128329999Y-80390000D01*
X128329999Y-80390000D02*
X128258571Y-80318571D01*
X128258571Y-80318571D02*
X128258571Y-80461428D01*
X127615713Y-79104285D02*
X127544285Y-79032857D01*
X127544285Y-79032857D02*
X127401428Y-78961428D01*
X127401428Y-78961428D02*
X127044285Y-78961428D01*
X127044285Y-78961428D02*
X126901428Y-79032857D01*
X126901428Y-79032857D02*
X126829999Y-79104285D01*
X126829999Y-79104285D02*
X126758570Y-79247142D01*
X126758570Y-79247142D02*
X126758570Y-79390000D01*
X126758570Y-79390000D02*
X126829999Y-79604285D01*
X126829999Y-79604285D02*
X127687142Y-80461428D01*
X127687142Y-80461428D02*
X126758570Y-80461428D01*
X125829999Y-78961428D02*
X125687142Y-78961428D01*
X125687142Y-78961428D02*
X125544285Y-79032857D01*
X125544285Y-79032857D02*
X125472857Y-79104285D01*
X125472857Y-79104285D02*
X125401428Y-79247142D01*
X125401428Y-79247142D02*
X125329999Y-79532857D01*
X125329999Y-79532857D02*
X125329999Y-79890000D01*
X125329999Y-79890000D02*
X125401428Y-80175714D01*
X125401428Y-80175714D02*
X125472857Y-80318571D01*
X125472857Y-80318571D02*
X125544285Y-80390000D01*
X125544285Y-80390000D02*
X125687142Y-80461428D01*
X125687142Y-80461428D02*
X125829999Y-80461428D01*
X125829999Y-80461428D02*
X125972857Y-80390000D01*
X125972857Y-80390000D02*
X126044285Y-80318571D01*
X126044285Y-80318571D02*
X126115714Y-80175714D01*
X126115714Y-80175714D02*
X126187142Y-79890000D01*
X126187142Y-79890000D02*
X126187142Y-79532857D01*
X126187142Y-79532857D02*
X126115714Y-79247142D01*
X126115714Y-79247142D02*
X126044285Y-79104285D01*
X126044285Y-79104285D02*
X125972857Y-79032857D01*
X125972857Y-79032857D02*
X125829999Y-78961428D01*
X124758571Y-79104285D02*
X124687143Y-79032857D01*
X124687143Y-79032857D02*
X124544286Y-78961428D01*
X124544286Y-78961428D02*
X124187143Y-78961428D01*
X124187143Y-78961428D02*
X124044286Y-79032857D01*
X124044286Y-79032857D02*
X123972857Y-79104285D01*
X123972857Y-79104285D02*
X123901428Y-79247142D01*
X123901428Y-79247142D02*
X123901428Y-79390000D01*
X123901428Y-79390000D02*
X123972857Y-79604285D01*
X123972857Y-79604285D02*
X124830000Y-80461428D01*
X124830000Y-80461428D02*
X123901428Y-80461428D01*
X123401429Y-78961428D02*
X122472857Y-78961428D01*
X122472857Y-78961428D02*
X122972857Y-79532857D01*
X122972857Y-79532857D02*
X122758572Y-79532857D01*
X122758572Y-79532857D02*
X122615715Y-79604285D01*
X122615715Y-79604285D02*
X122544286Y-79675714D01*
X122544286Y-79675714D02*
X122472857Y-79818571D01*
X122472857Y-79818571D02*
X122472857Y-80175714D01*
X122472857Y-80175714D02*
X122544286Y-80318571D01*
X122544286Y-80318571D02*
X122615715Y-80390000D01*
X122615715Y-80390000D02*
X122758572Y-80461428D01*
X122758572Y-80461428D02*
X123187143Y-80461428D01*
X123187143Y-80461428D02*
X123330000Y-80390000D01*
X123330000Y-80390000D02*
X123401429Y-80318571D01*
D13*
%TO.C,M1*%
X94350095Y-60261581D02*
X93550095Y-60261581D01*
X93550095Y-60261581D02*
X94121523Y-60528247D01*
X94121523Y-60528247D02*
X93550095Y-60794914D01*
X93550095Y-60794914D02*
X94350095Y-60794914D01*
X94350095Y-61594914D02*
X94350095Y-61137771D01*
X94350095Y-61366343D02*
X93550095Y-61366343D01*
X93550095Y-61366343D02*
X93664380Y-61290152D01*
X93664380Y-61290152D02*
X93740571Y-61213962D01*
X93740571Y-61213962D02*
X93778666Y-61137771D01*
%TO.C,G1*%
G36*
X79006700Y-86074153D02*
G01*
X79040308Y-86074553D01*
X79526694Y-86126377D01*
X79922058Y-86256332D01*
X80192033Y-86453422D01*
X80266933Y-86550738D01*
X80319962Y-86661843D01*
X80353757Y-86816321D01*
X80372597Y-87045657D01*
X80380763Y-87381339D01*
X80382533Y-87854854D01*
X80382533Y-89035467D01*
X79963425Y-89035467D01*
X79544317Y-89035467D01*
X79518925Y-88548633D01*
X79493533Y-88061800D01*
X79091366Y-88035994D01*
X78689200Y-88010189D01*
X78689200Y-87676161D01*
X78689200Y-87342133D01*
X79061141Y-87342133D01*
X79133605Y-87340119D01*
X79391654Y-87284257D01*
X79509960Y-87177405D01*
X79490042Y-87054158D01*
X79333416Y-86949115D01*
X79041602Y-86896871D01*
X78689200Y-86882818D01*
X78689200Y-86477475D01*
X78689200Y-86072133D01*
X79006700Y-86074153D01*
G37*
G36*
X71820104Y-87512819D02*
G01*
X71831200Y-87586610D01*
X71803412Y-87917492D01*
X71645123Y-88363273D01*
X71344565Y-88717957D01*
X70899262Y-88985261D01*
X70577977Y-89082762D01*
X70114728Y-89081386D01*
X69659999Y-88916047D01*
X69226064Y-88589648D01*
X69225587Y-88589186D01*
X68950373Y-88220821D01*
X68819268Y-87814277D01*
X68820043Y-87396352D01*
X68823520Y-87384729D01*
X69742527Y-87384729D01*
X69742698Y-87671837D01*
X69890012Y-87965715D01*
X70077314Y-88131391D01*
X70349533Y-88188800D01*
X70595683Y-88144047D01*
X70809055Y-87965715D01*
X70824206Y-87946236D01*
X70956912Y-87720664D01*
X70961934Y-87512819D01*
X70842467Y-87254760D01*
X70687974Y-87070515D01*
X70421381Y-86955097D01*
X70106557Y-86999275D01*
X69880887Y-87142815D01*
X69742527Y-87384729D01*
X68823520Y-87384729D01*
X68940467Y-86993847D01*
X69168312Y-86633560D01*
X69491347Y-86342289D01*
X69897344Y-86146834D01*
X70374073Y-86073993D01*
X70820318Y-86140167D01*
X71229536Y-86347108D01*
X71549107Y-86672408D01*
X71757005Y-87093198D01*
X71820104Y-87512819D01*
G37*
G36*
X77523017Y-86118565D02*
G01*
X77869661Y-86276193D01*
X78146689Y-86554639D01*
X78212135Y-86675740D01*
X78262117Y-86843999D01*
X78296566Y-87084921D01*
X78319991Y-87430726D01*
X78336902Y-87913633D01*
X78367147Y-89035467D01*
X77893174Y-89035467D01*
X77419200Y-89035467D01*
X77419200Y-87986192D01*
X77419077Y-87866747D01*
X77414892Y-87458334D01*
X77401976Y-87184006D01*
X77376572Y-87015301D01*
X77334922Y-86923758D01*
X77273267Y-86880917D01*
X77173934Y-86869573D01*
X77019267Y-86972707D01*
X76933905Y-87127588D01*
X76935426Y-87302039D01*
X77080533Y-87402268D01*
X77174484Y-87448296D01*
X77234265Y-87573102D01*
X77249866Y-87817675D01*
X77249858Y-87827676D01*
X77237278Y-88057247D01*
X77187440Y-88163148D01*
X77080533Y-88188800D01*
X77041367Y-88190611D01*
X76957956Y-88231578D01*
X76920115Y-88358216D01*
X76911200Y-88612133D01*
X76911200Y-89035467D01*
X76487866Y-89035467D01*
X76064533Y-89035467D01*
X76064533Y-88016747D01*
X76064824Y-87914682D01*
X76080433Y-87361617D01*
X76120608Y-86962716D01*
X76186438Y-86706268D01*
X76219138Y-86635985D01*
X76454819Y-86340465D01*
X76776653Y-86153713D01*
X77145701Y-86078743D01*
X77523017Y-86118565D01*
G37*
G36*
X74866068Y-86072255D02*
G01*
X75075385Y-86095789D01*
X75229901Y-86175757D01*
X75340011Y-86334733D01*
X75416111Y-86595293D01*
X75468597Y-86980013D01*
X75507864Y-87511467D01*
X75529930Y-87854675D01*
X75559608Y-88247061D01*
X75588509Y-88564656D01*
X75612674Y-88760300D01*
X75660045Y-89035467D01*
X75237358Y-89035467D01*
X74814670Y-89035467D01*
X74754359Y-88231025D01*
X74714327Y-87819577D01*
X74668349Y-87571207D01*
X74617213Y-87489166D01*
X74561541Y-87574443D01*
X74501953Y-87828031D01*
X74477406Y-87950348D01*
X74403298Y-88266747D01*
X74317014Y-88590967D01*
X74291548Y-88677447D01*
X74207632Y-88901924D01*
X74117913Y-89008475D01*
X73994559Y-89035467D01*
X73908914Y-89029673D01*
X73771079Y-88972476D01*
X73665101Y-88831103D01*
X73574083Y-88577516D01*
X73481124Y-88183683D01*
X73476564Y-88162145D01*
X73389337Y-87801814D01*
X73310120Y-87563970D01*
X73245447Y-87459455D01*
X73201851Y-87499111D01*
X73185866Y-87693780D01*
X73181273Y-87858387D01*
X73161518Y-88177176D01*
X73131472Y-88515047D01*
X73077077Y-89035467D01*
X72656050Y-89035467D01*
X72235022Y-89035467D01*
X72285213Y-88590967D01*
X72315368Y-88297951D01*
X72351559Y-87902096D01*
X72383537Y-87511467D01*
X72401108Y-87289746D01*
X72448917Y-86821105D01*
X72509049Y-86489656D01*
X72593128Y-86272217D01*
X72712779Y-86145604D01*
X72879627Y-86086637D01*
X73105296Y-86072133D01*
X73180039Y-86074287D01*
X73393834Y-86123504D01*
X73549629Y-86258665D01*
X73669981Y-86507473D01*
X73777449Y-86897633D01*
X73823345Y-87074081D01*
X73890556Y-87267113D01*
X73942430Y-87342133D01*
X73991471Y-87274931D01*
X74067480Y-87084748D01*
X74151409Y-86814705D01*
X74229960Y-86556856D01*
X74318919Y-86314165D01*
X74387324Y-86179705D01*
X74420223Y-86153487D01*
X74597889Y-86095334D01*
X74845059Y-86072133D01*
X74866068Y-86072255D01*
G37*
G36*
X85204766Y-81266536D02*
G01*
X85445974Y-81349121D01*
X85757415Y-81476708D01*
X86093555Y-81629332D01*
X86408860Y-81787031D01*
X86657797Y-81929839D01*
X86970482Y-82150018D01*
X87266536Y-82437652D01*
X87446195Y-82750621D01*
X87537028Y-83126445D01*
X87550856Y-83223365D01*
X87605942Y-83559252D01*
X87679670Y-83966903D01*
X87760018Y-84378800D01*
X87788398Y-84520525D01*
X87871727Y-84958971D01*
X87946453Y-85381460D01*
X87999166Y-85713176D01*
X88008185Y-85775165D01*
X88051026Y-86006169D01*
X88115679Y-86192324D01*
X88226080Y-86375312D01*
X88406165Y-86596813D01*
X88679872Y-86898509D01*
X88847505Y-87084776D01*
X89192368Y-87486266D01*
X89575721Y-87949616D01*
X89959593Y-88427922D01*
X90306010Y-88874283D01*
X90576999Y-89241793D01*
X90586608Y-89258748D01*
X90569523Y-89416565D01*
X90414826Y-89663867D01*
X90175855Y-89977175D01*
X89247705Y-89040654D01*
X89060899Y-88853442D01*
X88758854Y-88556566D01*
X88509609Y-88318968D01*
X88334994Y-88161280D01*
X88256835Y-88104133D01*
X88238119Y-88116952D01*
X88213817Y-88251577D01*
X88219201Y-88507018D01*
X88250842Y-88851118D01*
X88305312Y-89251720D01*
X88379180Y-89676667D01*
X88469017Y-90093800D01*
X88525631Y-90340752D01*
X88624200Y-90827067D01*
X88709182Y-91316317D01*
X88775919Y-91774863D01*
X88819755Y-92169062D01*
X88836033Y-92465274D01*
X88820095Y-92629858D01*
X88768578Y-92708907D01*
X88661691Y-92749283D01*
X88477437Y-92735302D01*
X88189034Y-92664535D01*
X87769700Y-92534551D01*
X87071200Y-92307622D01*
X87071200Y-91833490D01*
X87052919Y-91307101D01*
X86968195Y-90534152D01*
X86823552Y-89780804D01*
X86629030Y-89096089D01*
X86394666Y-88529033D01*
X86270137Y-88325018D01*
X86078169Y-88066271D01*
X85857650Y-87802950D01*
X85640230Y-87570713D01*
X85457556Y-87405221D01*
X85341277Y-87342133D01*
X85275104Y-87369092D01*
X85162645Y-87514902D01*
X85074711Y-87736220D01*
X85039200Y-87974630D01*
X85039251Y-87978963D01*
X85060060Y-88143807D01*
X85113235Y-88431736D01*
X85190990Y-88803408D01*
X85285540Y-89219479D01*
X85364223Y-89556644D01*
X85500756Y-90154022D01*
X85638078Y-90767020D01*
X85755874Y-91305537D01*
X85761274Y-91330636D01*
X85850936Y-91738542D01*
X85931978Y-92092029D01*
X85995689Y-92353993D01*
X86033356Y-92487331D01*
X85994510Y-92498922D01*
X85843328Y-92426259D01*
X85603665Y-92281177D01*
X85300180Y-92077459D01*
X84513515Y-91528198D01*
X84224173Y-90599332D01*
X84192686Y-90496630D01*
X84018164Y-89868831D01*
X83857889Y-89198836D01*
X83719658Y-88527233D01*
X83611268Y-87894612D01*
X83540516Y-87341563D01*
X83515200Y-86908672D01*
X83522335Y-86593520D01*
X83556390Y-86378178D01*
X83635709Y-86211348D01*
X83778633Y-86031991D01*
X83857494Y-85948311D01*
X84058840Y-85776093D01*
X84223133Y-85686587D01*
X84242687Y-85682472D01*
X84485845Y-85695551D01*
X84803332Y-85786463D01*
X85139014Y-85935101D01*
X85436756Y-86121354D01*
X85478460Y-86153815D01*
X85593789Y-86253461D01*
X85716335Y-86379721D01*
X85864303Y-86554857D01*
X86055899Y-86801130D01*
X86309325Y-87140801D01*
X86642789Y-87596133D01*
X86920571Y-87977133D01*
X86863892Y-87440991D01*
X86829796Y-87183814D01*
X86776043Y-86902041D01*
X86721747Y-86721324D01*
X86686147Y-86669841D01*
X86521036Y-86505066D01*
X86251515Y-86274406D01*
X85902017Y-85996553D01*
X85496978Y-85690196D01*
X85060831Y-85374025D01*
X84618012Y-85066732D01*
X84192954Y-84787006D01*
X83536043Y-84368883D01*
X83686046Y-83887008D01*
X83751696Y-83683308D01*
X83860245Y-83369208D01*
X83950791Y-83131925D01*
X84065533Y-82858716D01*
X84700533Y-83291690D01*
X84788124Y-83352051D01*
X85126496Y-83595232D01*
X85439665Y-83833871D01*
X85669357Y-84023926D01*
X85805684Y-84136612D01*
X85960212Y-84234169D01*
X86032135Y-84236328D01*
X86033751Y-84225315D01*
X86007768Y-84084235D01*
X85933516Y-83831299D01*
X85824437Y-83504191D01*
X85693970Y-83140597D01*
X85555557Y-82778203D01*
X85422638Y-82454694D01*
X85308652Y-82207756D01*
X85226660Y-82027462D01*
X85130330Y-81751541D01*
X85070437Y-81500052D01*
X85056587Y-81316936D01*
X85098390Y-81246133D01*
X85204766Y-81266536D01*
G37*
G36*
X93478644Y-87502800D02*
G01*
X93483147Y-87671247D01*
X93459785Y-88053876D01*
X93337075Y-88958181D01*
X93111405Y-89788571D01*
X92766787Y-90595280D01*
X92287232Y-91428539D01*
X92104469Y-91698785D01*
X91431010Y-92501075D01*
X90631169Y-93204681D01*
X89721970Y-93796082D01*
X88720433Y-94261757D01*
X88292180Y-94413069D01*
X87716393Y-94567812D01*
X87127198Y-94660728D01*
X86474247Y-94698964D01*
X85707194Y-94689673D01*
X85344423Y-94674009D01*
X84905961Y-94642593D01*
X84554389Y-94595286D01*
X84240153Y-94524737D01*
X83913698Y-94423594D01*
X83611526Y-94315672D01*
X82612690Y-93873079D01*
X81735708Y-93335767D01*
X80958343Y-92690699D01*
X80560486Y-92309988D01*
X80010570Y-92824407D01*
X79982238Y-92850804D01*
X79105294Y-93564924D01*
X78173778Y-94124760D01*
X77167066Y-94540760D01*
X76064533Y-94823371D01*
X76046649Y-94826157D01*
X75858466Y-94838365D01*
X75546997Y-94844897D01*
X75151158Y-94845300D01*
X74709866Y-94839123D01*
X74235021Y-94823335D01*
X73723460Y-94785374D01*
X73291765Y-94722474D01*
X72889533Y-94628810D01*
X72746540Y-94586751D01*
X72134515Y-94358217D01*
X71483408Y-94051207D01*
X70857674Y-93698272D01*
X70321768Y-93331967D01*
X69743479Y-92830439D01*
X69034525Y-92032703D01*
X68437961Y-91130599D01*
X67969001Y-90148108D01*
X67642858Y-89109209D01*
X67580555Y-88761926D01*
X67527577Y-88184932D01*
X67513453Y-87627294D01*
X68407661Y-87627294D01*
X68409994Y-88111111D01*
X68420795Y-88473355D01*
X68444746Y-88753754D01*
X68486529Y-88992032D01*
X68550828Y-89227916D01*
X68642324Y-89501133D01*
X69041579Y-90439942D01*
X69591653Y-91343982D01*
X70260745Y-92130423D01*
X71043828Y-92794303D01*
X71935877Y-93330663D01*
X72931866Y-93734544D01*
X73055610Y-93771801D01*
X73652650Y-93901687D01*
X74322505Y-93983414D01*
X75007432Y-94013896D01*
X75649689Y-93990046D01*
X76191533Y-93908777D01*
X77101132Y-93639039D01*
X78075333Y-93200925D01*
X78939981Y-92635039D01*
X79692419Y-91943503D01*
X80329992Y-91128435D01*
X80850040Y-90191957D01*
X80872974Y-90141993D01*
X81097597Y-89598407D01*
X81251593Y-89087850D01*
X81343927Y-88560633D01*
X81383564Y-87967068D01*
X81379467Y-87257467D01*
X81376587Y-87162519D01*
X81356696Y-86686748D01*
X81326696Y-86324266D01*
X81279312Y-86027130D01*
X81207271Y-85747400D01*
X81103301Y-85437133D01*
X80735231Y-84582374D01*
X80185954Y-83684458D01*
X79815255Y-83252707D01*
X81125414Y-83252707D01*
X81163266Y-83464298D01*
X81281981Y-83751351D01*
X81478937Y-84151889D01*
X81508436Y-84211109D01*
X81821078Y-84892059D01*
X82040195Y-85504975D01*
X82179393Y-86107453D01*
X82252274Y-86757085D01*
X82272441Y-87511467D01*
X82260241Y-87967068D01*
X82254616Y-88177144D01*
X82184408Y-88853350D01*
X82048155Y-89474645D01*
X81832381Y-90100008D01*
X81523607Y-90788419D01*
X81410974Y-91022403D01*
X81273479Y-91316074D01*
X81179401Y-91527331D01*
X81144533Y-91621471D01*
X81183970Y-91691714D01*
X81326907Y-91850543D01*
X81542938Y-92059646D01*
X81798899Y-92288494D01*
X82061626Y-92506557D01*
X82297955Y-92683304D01*
X82320162Y-92698497D01*
X83020932Y-93110039D01*
X83796055Y-93454696D01*
X84561931Y-93695105D01*
X84633369Y-93711587D01*
X85366910Y-93822540D01*
X86167889Y-93855618D01*
X86963630Y-93810971D01*
X87681455Y-93688747D01*
X87846897Y-93645319D01*
X88751787Y-93312676D01*
X89621195Y-92838051D01*
X90418245Y-92244425D01*
X91106056Y-91554778D01*
X91401391Y-91180531D01*
X91930170Y-90323114D01*
X92311369Y-89412683D01*
X92546621Y-88466743D01*
X92637561Y-87502800D01*
X92585822Y-86538361D01*
X92393039Y-85590932D01*
X92060846Y-84678018D01*
X91590878Y-83817126D01*
X90984767Y-83025761D01*
X90244149Y-82321429D01*
X89982981Y-82126942D01*
X89430955Y-81784659D01*
X88811200Y-81465882D01*
X88186974Y-81201904D01*
X87621533Y-81024017D01*
X87574459Y-81013058D01*
X87032020Y-80927958D01*
X86398580Y-80886174D01*
X85737799Y-80887763D01*
X85113337Y-80932782D01*
X84588853Y-81021288D01*
X84042599Y-81183014D01*
X83158580Y-81559718D01*
X82320797Y-82053397D01*
X81583523Y-82634910D01*
X81523246Y-82690446D01*
X81302782Y-82903805D01*
X81171045Y-83078551D01*
X81125414Y-83252707D01*
X79815255Y-83252707D01*
X79512863Y-82900512D01*
X78720374Y-82234803D01*
X77812904Y-81691598D01*
X76794869Y-81275162D01*
X76725813Y-81252738D01*
X76423064Y-81163524D01*
X76143640Y-81103976D01*
X75839396Y-81067962D01*
X75462186Y-81049352D01*
X74963866Y-81042017D01*
X74542437Y-81042395D01*
X74122807Y-81055385D01*
X73785154Y-81086965D01*
X73480830Y-81142093D01*
X73161187Y-81225726D01*
X73022470Y-81267381D01*
X72019393Y-81663781D01*
X71115303Y-82195126D01*
X70317986Y-82854008D01*
X69635232Y-83633019D01*
X69074827Y-84524752D01*
X68644561Y-85521800D01*
X68631723Y-85559007D01*
X68544320Y-85827659D01*
X68483294Y-86065701D01*
X68443887Y-86313118D01*
X68421341Y-86609895D01*
X68410898Y-86996016D01*
X68407800Y-87511467D01*
X68407661Y-87627294D01*
X67513453Y-87627294D01*
X67511305Y-87542498D01*
X67531150Y-86892179D01*
X67586521Y-86291533D01*
X67676826Y-85798113D01*
X67888725Y-85102810D01*
X68332169Y-84090900D01*
X68901603Y-83175952D01*
X69584232Y-82365968D01*
X70367257Y-81668952D01*
X71237882Y-81092906D01*
X72183308Y-80645834D01*
X73190739Y-80335738D01*
X74247378Y-80170621D01*
X75340426Y-80158485D01*
X76457087Y-80307335D01*
X76506784Y-80317846D01*
X77278233Y-80539658D01*
X78062798Y-80864168D01*
X78814890Y-81267144D01*
X79488923Y-81724352D01*
X80039309Y-82211560D01*
X80143552Y-82314711D01*
X80315100Y-82459353D01*
X80422473Y-82516133D01*
X80426189Y-82515830D01*
X80533170Y-82451334D01*
X80715184Y-82296129D01*
X80935030Y-82081743D01*
X81079226Y-81938199D01*
X81848653Y-81310066D01*
X82726761Y-80791308D01*
X83688120Y-80392896D01*
X84707298Y-80125798D01*
X85758866Y-80000985D01*
X86150553Y-79992726D01*
X87251941Y-80080646D01*
X88316526Y-80329315D01*
X89329078Y-80733118D01*
X90274368Y-81286441D01*
X91137168Y-81983671D01*
X91744580Y-82615793D01*
X92407739Y-83505984D01*
X92914248Y-84459226D01*
X93263034Y-85472919D01*
X93453025Y-86544459D01*
X93478644Y-87502800D01*
G37*
D14*
%TO.C,M1*%
X107966920Y-71068000D02*
X2126920Y-71068000D01*
X107966920Y-71068000D02*
X107966920Y-55575200D01*
X108906920Y-71068000D02*
X108906920Y-55575200D01*
X131466920Y-71068000D02*
X108906920Y-71068000D01*
D15*
X11551920Y-69088000D02*
X11551920Y-64008000D01*
X14091920Y-69088000D02*
X11551920Y-69088000D01*
X125851920Y-69088000D02*
X130931920Y-69088000D01*
X130931920Y-69088000D02*
X130931920Y-66548000D01*
D14*
X126920Y-69068000D02*
X126920Y-3068000D01*
D15*
X125851920Y-66548000D02*
X125851920Y-69088000D01*
X130931920Y-66548000D02*
X125851920Y-66548000D01*
X11551920Y-64008000D02*
X14091920Y-64008000D01*
X14091920Y-64008000D02*
X14091920Y-69088000D01*
D14*
X107966920Y-52070000D02*
X107966920Y-33070800D01*
X108906920Y-52070000D02*
X108906920Y-33070800D01*
D15*
X134620Y-33756600D02*
X9621520Y-33756600D01*
X9621520Y-33756600D02*
X9621520Y-19748500D01*
D14*
X107966920Y-28448000D02*
X107966920Y-21132800D01*
X108906920Y-28448000D02*
X108906920Y-21132800D01*
D15*
X9621520Y-19748500D02*
X134620Y-19748500D01*
D14*
X107966920Y-17068800D02*
X107966920Y-1068000D01*
X108906920Y-17068800D02*
X108906920Y-1068000D01*
D15*
X11551920Y-8128000D02*
X11551920Y-3048000D01*
X14091920Y-8128000D02*
X11551920Y-8128000D01*
X125851920Y-5588000D02*
X125851920Y-3048000D01*
X130931920Y-5588000D02*
X125851920Y-5588000D01*
D14*
X133466920Y-3068000D02*
X133466920Y-69068000D01*
D15*
X11551920Y-3048000D02*
X14091920Y-3048000D01*
X14091920Y-3048000D02*
X14091920Y-8128000D01*
X125851920Y-3048000D02*
X130931920Y-3048000D01*
X130931920Y-3048000D02*
X130931920Y-5588000D01*
D14*
X2126920Y-1068000D02*
X107966920Y-1068000D01*
X108906920Y-1068000D02*
X131466920Y-1068000D01*
X126920Y-69068000D02*
G75*
G03*
X2126920Y-71068000I1999999J-1D01*
G01*
X131466920Y-71068000D02*
G75*
G03*
X133466920Y-69068000I1J1999999D01*
G01*
X108906920Y-55575199D02*
G75*
G03*
X107966920Y-55575200I-470000J-7462D01*
G01*
X107966920Y-52070001D02*
G75*
G03*
X108906920Y-52070000I470000J7462D01*
G01*
X108906920Y-33070799D02*
G75*
G03*
X107966920Y-33070800I-470000J-7461D01*
G01*
X107966920Y-28448001D02*
G75*
G03*
X108906920Y-28448000I470000J7461D01*
G01*
X108906920Y-21132799D02*
G75*
G03*
X107966920Y-21132800I-470000J-7461D01*
G01*
X107966920Y-17068801D02*
G75*
G03*
X108906920Y-17068800I470000J7461D01*
G01*
X2126920Y-1068000D02*
G75*
G03*
X126920Y-3068000I0J-2000000D01*
G01*
X133466920Y-3068000D02*
G75*
G03*
X131466920Y-1068000I-2000000J0D01*
G01*
D16*
X68806920Y-61948000D02*
G75*
G03*
X68806920Y-61948000I-100000J0D01*
G01*
X91666920Y-61948000D02*
G75*
G03*
X91666920Y-61948000I-100000J0D01*
G01*
X73886920Y-16228000D02*
G75*
G03*
X73886920Y-16228000I-100000J0D01*
G01*
X100810920Y-16228000D02*
G75*
G03*
X100810920Y-16228000I-100000J0D01*
G01*
%TD*%
%LPC*%
D17*
%TO.C,U33*%
X113665000Y-22225000D03*
D18*
X111125000Y-22225000D03*
X108585000Y-22225000D03*
X106045000Y-22225000D03*
%TD*%
D19*
%TO.C,PP2*%
X78740000Y-40132000D03*
%TD*%
D20*
%TO.C,PP5*%
X89916000Y-49657000D03*
%TD*%
D19*
%TO.C,PP1*%
X78740000Y-43180000D03*
%TD*%
D21*
%TO.C,J4*%
X45466000Y-90932000D03*
D22*
X42926000Y-90932000D03*
X45466000Y-88392000D03*
X42926000Y-88392000D03*
X45466000Y-85852000D03*
X42926000Y-85852000D03*
X45466000Y-83312000D03*
X42926000Y-83312000D03*
X45466000Y-80772000D03*
X42926000Y-80772000D03*
%TD*%
D23*
%TO.C,J2*%
X5080000Y-87122000D03*
X2540000Y-89662000D03*
X7620000Y-89662000D03*
X2540000Y-84582000D03*
X7620000Y-84582000D03*
%TD*%
D24*
%TO.C,U35*%
X126365000Y-40259000D03*
D18*
X126365000Y-37719000D03*
X126365000Y-35179000D03*
X126365000Y-32639000D03*
%TD*%
D25*
%TO.C,GND1*%
X105029000Y-73025000D03*
X107569000Y-73025000D03*
%TD*%
D26*
%TO.C,H6*%
X58400000Y-92400000D03*
%TD*%
D27*
%TO.C,VuC1*%
X135763000Y-80645000D03*
%TD*%
D19*
%TO.C,P5V1*%
X101219000Y-78486000D03*
%TD*%
D27*
%TO.C,P6V1*%
X110363000Y-90043000D03*
%TD*%
D28*
%TO.C,J9*%
X12700000Y-34798000D03*
D29*
X7620000Y-39878000D03*
D28*
X12700000Y-37338000D03*
D29*
X7620000Y-29718000D03*
%TD*%
D30*
%TO.C,H1*%
X3556000Y-5512000D03*
%TD*%
D28*
%TO.C,J11*%
X12827000Y-70866000D03*
D29*
X7747000Y-75946000D03*
D28*
X12827000Y-73406000D03*
D29*
X7747000Y-65786000D03*
%TD*%
D17*
%TO.C,U9*%
X70513800Y-77666000D03*
D18*
X67973800Y-77666000D03*
X65433800Y-77666000D03*
X62893800Y-77666000D03*
%TD*%
D20*
%TO.C,PP3*%
X79502000Y-26670000D03*
%TD*%
%TO.C,P12V1*%
X140843000Y-92329000D03*
%TD*%
D26*
%TO.C,H8*%
X156503000Y-93997000D03*
%TD*%
D31*
%TO.C,J12*%
X96393000Y-34925000D03*
D22*
X98933000Y-34925000D03*
X96393000Y-37465000D03*
X98933000Y-37465000D03*
X96393000Y-40005000D03*
X98933000Y-40005000D03*
X96393000Y-42545000D03*
X98933000Y-42545000D03*
X96393000Y-45085000D03*
X98933000Y-45085000D03*
X96393000Y-47625000D03*
X98933000Y-47625000D03*
X96393000Y-50165000D03*
X98933000Y-50165000D03*
%TD*%
D26*
%TO.C,H7*%
X156503000Y-6003000D03*
%TD*%
D30*
%TO.C,H2*%
X3556000Y-94412000D03*
%TD*%
D20*
%TO.C,PP7*%
X89916000Y-44577000D03*
%TD*%
D28*
%TO.C,J8*%
X12827000Y-52832000D03*
D29*
X7747000Y-57912000D03*
D28*
X12827000Y-55372000D03*
D29*
X7747000Y-47752000D03*
%TD*%
D24*
%TO.C,U34*%
X126365000Y-53467000D03*
D18*
X126365000Y-50927000D03*
X126365000Y-48387000D03*
X126365000Y-45847000D03*
%TD*%
D32*
%TO.C,U1*%
X134584000Y-70616000D03*
X134584000Y-68076000D03*
X134584000Y-62996000D03*
X117384000Y-64516000D03*
X117384000Y-67056000D03*
X117384000Y-69596000D03*
%TD*%
D21*
%TO.C,J7*%
X39624000Y-49403000D03*
D22*
X37084000Y-49403000D03*
X39624000Y-46863000D03*
X37084000Y-46863000D03*
X39624000Y-44323000D03*
X37084000Y-44323000D03*
X39624000Y-41783000D03*
X37084000Y-41783000D03*
X39624000Y-39243000D03*
X37084000Y-39243000D03*
%TD*%
D20*
%TO.C,PP4*%
X79883000Y-30607000D03*
%TD*%
%TO.C,PP6*%
X77724000Y-34544000D03*
%TD*%
D33*
%TO.C,U6*%
X111133000Y-78486000D03*
X111633000Y-77861000D03*
D34*
X111633000Y-78486000D03*
D33*
X111633000Y-79111000D03*
X112133000Y-78486000D03*
%TD*%
D28*
%TO.C,J10*%
X12827000Y-16764000D03*
D29*
X7747000Y-21844000D03*
D28*
X12827000Y-19304000D03*
D29*
X7747000Y-11684000D03*
%TD*%
D26*
%TO.C,H4*%
X28400000Y-92400000D03*
%TD*%
D31*
%TO.C,J5*%
X154679692Y-15877648D03*
D22*
X157219692Y-15877648D03*
X154679692Y-18417648D03*
X157219692Y-18417648D03*
X154679692Y-20957648D03*
X157219692Y-20957648D03*
X154679692Y-23497648D03*
X157219692Y-23497648D03*
X154679692Y-26037648D03*
X157219692Y-26037648D03*
X154679692Y-28577648D03*
X157219692Y-28577648D03*
X154679692Y-31117648D03*
X157219692Y-31117648D03*
X154679692Y-33657648D03*
X157219692Y-33657648D03*
X154679692Y-36197648D03*
X157219692Y-36197648D03*
X154679692Y-38737648D03*
X157219692Y-38737648D03*
X154679692Y-41277648D03*
X157219692Y-41277648D03*
X154679692Y-43817648D03*
X157219692Y-43817648D03*
X154679692Y-46357648D03*
X157219692Y-46357648D03*
X154679692Y-48897648D03*
X157219692Y-48897648D03*
X154679692Y-51437648D03*
X157219692Y-51437648D03*
%TD*%
D35*
%TO.C,J1*%
X154210500Y-86868000D03*
D36*
X154210500Y-81788000D03*
%TD*%
D37*
%TO.C,P2V1*%
X94234000Y-70485000D03*
%TD*%
D26*
%TO.C,H3*%
X28400000Y-7600000D03*
%TD*%
D21*
%TO.C,J14*%
X28321000Y-38989000D03*
D22*
X25781000Y-38989000D03*
X28321000Y-36449000D03*
X25781000Y-36449000D03*
X28321000Y-33909000D03*
X25781000Y-33909000D03*
X28321000Y-31369000D03*
X25781000Y-31369000D03*
X28321000Y-28829000D03*
X25781000Y-28829000D03*
X28321000Y-26289000D03*
X25781000Y-26289000D03*
X28321000Y-23749000D03*
X25781000Y-23749000D03*
X28321000Y-21209000D03*
X25781000Y-21209000D03*
%TD*%
D26*
%TO.C,H5*%
X58400000Y-7600000D03*
%TD*%
D38*
%TO.C,M1*%
X105506920Y-60198000D03*
X29336920Y-58928000D03*
X53466920Y-27178000D03*
X29336920Y-13208000D03*
X104266920Y-11938000D03*
D18*
X12827000Y-67818000D03*
X12750800Y-65278000D03*
X12827000Y-6858000D03*
X12827000Y-4318000D03*
D39*
X100710920Y-14478000D03*
D40*
X100710920Y-11938000D03*
X98170920Y-14478000D03*
X98170920Y-11938000D03*
X95630920Y-14478000D03*
X95630920Y-11938000D03*
X93090920Y-14478000D03*
X93090920Y-11938000D03*
X90550920Y-14478000D03*
X90550920Y-11938000D03*
X88010920Y-14478000D03*
X88010920Y-11938000D03*
X85470920Y-14478000D03*
X85470920Y-11938000D03*
X82930920Y-14478000D03*
X82930920Y-11938000D03*
X80390920Y-14478000D03*
X80390920Y-11938000D03*
X77850920Y-14478000D03*
X77850920Y-11938000D03*
D39*
X91566920Y-60198000D03*
D40*
X91566920Y-57658000D03*
X89026920Y-60198000D03*
X89026920Y-57658000D03*
X86486920Y-60198000D03*
X86486920Y-57658000D03*
X83946920Y-60198000D03*
X83946920Y-57658000D03*
X81406920Y-60198000D03*
X81406920Y-57658000D03*
X78866920Y-60198000D03*
X78866920Y-57658000D03*
X76326920Y-60198000D03*
X76326920Y-57658000D03*
X73786920Y-60198000D03*
X73786920Y-57658000D03*
D39*
X68706920Y-60198000D03*
D40*
X68706920Y-57658000D03*
X66166920Y-60198000D03*
X66166920Y-57658000D03*
X63626920Y-60198000D03*
X63626920Y-57658000D03*
X61086920Y-60198000D03*
X61086920Y-57658000D03*
X58546920Y-60198000D03*
X58546920Y-57658000D03*
X56006920Y-60198000D03*
X56006920Y-57658000D03*
X53466920Y-60198000D03*
X53466920Y-57658000D03*
X50926920Y-60198000D03*
X50926920Y-57658000D03*
X48386920Y-60198000D03*
X48386920Y-57658000D03*
X45846920Y-60198000D03*
X45846920Y-57658000D03*
X43306920Y-60198000D03*
X43306920Y-57658000D03*
X40766920Y-60198000D03*
X40766920Y-57658000D03*
X38226920Y-60198000D03*
X38226920Y-57658000D03*
X35686920Y-60198000D03*
X35686920Y-57658000D03*
X33146920Y-60198000D03*
X33146920Y-57658000D03*
D39*
X73786920Y-14478000D03*
D40*
X73786920Y-11938000D03*
X71246920Y-14478000D03*
X71246920Y-11938000D03*
X68706920Y-14478000D03*
X68706920Y-11938000D03*
X66166920Y-14478000D03*
X66166920Y-11938000D03*
X63626920Y-14478000D03*
X63626920Y-11938000D03*
X61086920Y-14478000D03*
X61086920Y-11938000D03*
X58546920Y-14478000D03*
X58546920Y-11938000D03*
X56006920Y-14478000D03*
X56006920Y-11938000D03*
X53466920Y-14478000D03*
X53466920Y-11938000D03*
X50926920Y-14478000D03*
X50926920Y-11938000D03*
X48386920Y-14478000D03*
X48386920Y-11938000D03*
X45846920Y-14478000D03*
X45846920Y-11938000D03*
X43306920Y-14478000D03*
X43306920Y-11938000D03*
X40766920Y-14478000D03*
X40766920Y-11938000D03*
X38226920Y-14478000D03*
X38226920Y-11938000D03*
X35686920Y-14478000D03*
X35686920Y-11938000D03*
X33146920Y-14478000D03*
X33146920Y-11938000D03*
%TD*%
M02*
